<svg width="60" height="60" viewBox="0 0 60 60" fill="none" xmlns="http://www.w3.org/2000/svg">
<path d="M22.7604 43.75C20.8354 41.43 21.0604 37.9975 21.7454 35.79C32.9379 41.25 34.3979 31.25 33.5579 28.75C37.3204 31.25 40.9704 39.7975 37.0929 43.75" stroke="#722F37" stroke-width="1.5" stroke-linecap="round" stroke-linejoin="round"/>
<path d="M22.04 43.7496C13.98 41.0721 11.925 28.8696 15.325 22.3221C17.8125 27.6746 21.875 27.6746 21.875 27.6746C19.1675 16.9621 24.5825 8.92457 35.025 6.24707C32.98 9.99957 31.3425 15.8621 35.4925 19.6196C36.3725 17.9471 39.325 14.2821 43.5425 14.2821C43.5425 14.2821 40.3 20.0371 43.8175 25.0521C47.88 30.8396 46.84 39.4596 40.8 43.7471M8.89 43.7496H6.25M51.11 43.7496H53.75M51.25 43.7496H8.75L10.4 49.9621C11.2375 53.1121 12.1025 53.7496 15.555 53.7496H44.445C47.895 53.7496 48.7625 53.1121 49.6 49.9621L51.25 43.7496Z" stroke="#722F37" stroke-width="1.5" stroke-linecap="round" stroke-linejoin="round"/>
</svg>
