<svg width="60" height="60" viewBox="0 0 60 60" fill="none" xmlns="http://www.w3.org/2000/svg">
<g clip-path="url(#clip0_40_935)">
<mask id="path-1-inside-1_40_935" fill="white">
<path d="M55.0488 16.2012C56.6504 17.8027 57.8711 19.6191 58.7109 21.6504C59.5508 23.6816 59.9805 25.8398 60 28.125C60 28.8086 59.9805 29.6289 59.9414 30.5859C59.9023 31.543 59.8242 32.5781 59.707 33.6914C59.5898 34.8047 59.4043 35.9473 59.1504 37.1191C58.8965 38.291 58.5742 39.4531 58.1836 40.6055C57.5977 42.2852 56.9141 43.6523 56.1328 44.707C55.3516 45.7617 54.541 46.5918 53.7012 47.1973C52.8613 47.8027 52.0117 48.2129 51.1523 48.4277C50.293 48.6426 49.4922 48.75 48.75 48.75C48.1055 48.75 47.5195 48.6426 46.9922 48.4277C46.4648 48.2129 45.957 47.9199 45.4688 47.5488C44.9805 47.1777 44.5312 46.7773 44.1211 46.3477C43.7109 45.918 43.291 45.4492 42.8613 44.9414C42.4512 44.4727 42.0508 44.0234 41.6602 43.5938C41.2695 43.1641 40.8496 42.7832 40.4004 42.4512C39.9512 42.1191 39.502 41.8359 39.0527 41.6016C38.6035 41.3672 38.0762 41.25 37.4707 41.25H22.5293C21.9629 41.2695 21.4453 41.3867 20.9766 41.6016C20.5078 41.8164 20.0488 42.0898 19.5996 42.4219C19.1504 42.7539 18.7402 43.1445 18.3691 43.5938C17.998 44.043 17.5879 44.4922 17.1387 44.9414C16.7285 45.4102 16.3184 45.8691 15.9082 46.3184C15.498 46.7676 15.0488 47.1777 14.5605 47.5488C14.0723 47.9199 13.5645 48.2031 13.0371 48.3984C12.5098 48.5938 11.9141 48.7109 11.25 48.75C10.5078 48.75 9.70703 48.6426 8.84766 48.4277C7.98828 48.2129 7.13867 47.8125 6.29883 47.2266C5.45898 46.6406 4.64844 45.8105 3.86719 44.7363C3.08594 43.6621 2.40234 42.2852 1.81641 40.6055C1.42578 39.4727 1.11328 38.3203 0.878906 37.1484C0.644531 35.9766 0.458984 34.8242 0.322266 33.6914C0.185547 32.5586 0.0976562 31.5234 0.0585938 30.5859C0.0195312 29.6484 0 28.8281 0 28.125C0 25.8594 0.419922 23.7109 1.25977 21.6797C2.09961 19.6484 3.33008 17.8223 4.95117 16.2012C6.5332 14.5996 8.34961 13.3789 10.4004 12.5391C12.4512 11.6992 14.6094 11.2695 16.875 11.25H43.125C45.3906 11.25 47.5391 11.6699 49.5703 12.5098C51.6016 13.3496 53.4277 14.5801 55.0488 16.2012ZM54.6387 39.375C55.0098 38.3398 55.3027 37.2656 55.5176 36.1523C55.7324 35.0391 55.8887 33.9746 55.9863 32.959C56.084 31.9434 56.1523 31.0059 56.1914 30.1465C56.2305 29.2871 56.25 28.6133 56.25 28.125C56.25 26.3086 55.9082 24.6094 55.2246 23.0273C54.541 21.4453 53.6035 20.0586 52.4121 18.8672C51.2207 17.6758 49.834 16.7383 48.252 16.0547C46.6699 15.3711 44.9609 15.0195 43.125 15H16.875C15.0586 15 13.3594 15.3418 11.7773 16.0254C10.1953 16.709 8.80859 17.6465 7.61719 18.8379C6.42578 20.0293 5.48828 21.416 4.80469 22.998C4.12109 24.5801 3.76953 26.2891 3.75 28.125C3.75 28.6328 3.75977 29.3066 3.7793 30.1465C3.79883 30.9863 3.86719 31.9141 3.98438 32.9297C4.10156 33.9453 4.26758 35.0195 4.48242 36.1523C4.69727 37.2852 4.99023 38.3594 5.36133 39.375C5.84961 40.7812 6.38672 41.8652 6.97266 42.627C7.55859 43.3887 8.125 43.9453 8.67188 44.2969C9.21875 44.6484 9.72656 44.8535 10.1953 44.9121C10.6641 44.9707 11.0156 45 11.25 45C11.6797 45 12.1484 44.7461 12.6562 44.2383C13.1641 43.7305 13.7109 43.1445 14.2969 42.4805C14.7656 41.9336 15.2637 41.377 15.791 40.8105C16.3184 40.2441 16.9141 39.7168 17.5781 39.2285C18.2422 38.7402 18.9746 38.3398 19.7754 38.0273C20.5762 37.7148 21.4648 37.5391 22.4414 37.5H37.5586C38.5352 37.5391 39.4238 37.7148 40.2246 38.0273C41.0254 38.3398 41.748 38.7305 42.3926 39.1992C43.0371 39.668 43.6328 40.1953 44.1797 40.7812C44.7266 41.3672 45.2344 41.9336 45.7031 42.4805C46.2695 43.125 46.8066 43.7012 47.3145 44.209C47.8223 44.7168 48.3008 44.9805 48.75 45C48.9844 45 49.3262 44.9707 49.7754 44.9121C50.2246 44.8535 50.7324 44.6484 51.2988 44.2969C51.8652 43.9453 52.4414 43.3887 53.0273 42.627C53.6133 41.8652 54.1504 40.7812 54.6387 39.375ZM15 26.25H18.75V30H15V33.75H11.25V30H7.5V26.25H11.25V22.5H15V26.25ZM48.75 30C49.2773 30 49.7656 30.0977 50.2148 30.293C50.6641 30.4883 51.0547 30.752 51.3867 31.084C51.7188 31.416 51.9922 31.8164 52.207 32.2852C52.4219 32.7539 52.5195 33.2422 52.5 33.75C52.5 34.2773 52.4023 34.7656 52.207 35.2148C52.0117 35.6641 51.748 36.0547 51.416 36.3867C51.084 36.7188 50.6836 36.9922 50.2148 37.207C49.7461 37.4219 49.2578 37.5195 48.75 37.5C48.2227 37.5 47.7344 37.4023 47.2852 37.207C46.8359 37.0117 46.4453 36.748 46.1133 36.416C45.7812 36.084 45.5078 35.6836 45.293 35.2148C45.0781 34.7461 44.9805 34.2578 45 33.75C45 33.2227 45.0977 32.7344 45.293 32.2852C45.4883 31.8359 45.752 31.4453 46.084 31.1133C46.416 30.7812 46.8164 30.5078 47.2852 30.293C47.7539 30.0781 48.2422 29.9805 48.75 30ZM41.25 22.5C41.7773 22.5 42.2656 22.5977 42.7148 22.793C43.1641 22.9883 43.5547 23.252 43.8867 23.584C44.2188 23.916 44.4922 24.3164 44.707 24.7852C44.9219 25.2539 45.0195 25.7422 45 26.25C45 26.7773 44.9023 27.2656 44.707 27.7148C44.5117 28.1641 44.248 28.5547 43.916 28.8867C43.584 29.2188 43.1836 29.4922 42.7148 29.707C42.2461 29.9219 41.7578 30.0195 41.25 30C40.7227 30 40.2344 29.9023 39.7852 29.707C39.3359 29.5117 38.9453 29.248 38.6133 28.916C38.2812 28.584 38.0078 28.1836 37.793 27.7148C37.5781 27.2461 37.4805 26.7578 37.5 26.25C37.5 25.7227 37.5977 25.2344 37.793 24.7852C37.9883 24.3359 38.252 23.9453 38.584 23.6133C38.916 23.2812 39.3164 23.0078 39.7852 22.793C40.2539 22.5781 40.7422 22.4805 41.25 22.5Z"/>
</mask>
<path d="M55.0488 16.2012C56.6504 17.8027 57.8711 19.6191 58.7109 21.6504C59.5508 23.6816 59.9805 25.8398 60 28.125C60 28.8086 59.9805 29.6289 59.9414 30.5859C59.9023 31.543 59.8242 32.5781 59.707 33.6914C59.5898 34.8047 59.4043 35.9473 59.1504 37.1191C58.8965 38.291 58.5742 39.4531 58.1836 40.6055C57.5977 42.2852 56.9141 43.6523 56.1328 44.707C55.3516 45.7617 54.541 46.5918 53.7012 47.1973C52.8613 47.8027 52.0117 48.2129 51.1523 48.4277C50.293 48.6426 49.4922 48.75 48.75 48.75C48.1055 48.75 47.5195 48.6426 46.9922 48.4277C46.4648 48.2129 45.957 47.9199 45.4688 47.5488C44.9805 47.1777 44.5312 46.7773 44.1211 46.3477C43.7109 45.918 43.291 45.4492 42.8613 44.9414C42.4512 44.4727 42.0508 44.0234 41.6602 43.5938C41.2695 43.1641 40.8496 42.7832 40.4004 42.4512C39.9512 42.1191 39.502 41.8359 39.0527 41.6016C38.6035 41.3672 38.0762 41.25 37.4707 41.25H22.5293C21.9629 41.2695 21.4453 41.3867 20.9766 41.6016C20.5078 41.8164 20.0488 42.0898 19.5996 42.4219C19.1504 42.7539 18.7402 43.1445 18.3691 43.5938C17.998 44.043 17.5879 44.4922 17.1387 44.9414C16.7285 45.4102 16.3184 45.8691 15.9082 46.3184C15.498 46.7676 15.0488 47.1777 14.5605 47.5488C14.0723 47.9199 13.5645 48.2031 13.0371 48.3984C12.5098 48.5938 11.9141 48.7109 11.25 48.75C10.5078 48.75 9.70703 48.6426 8.84766 48.4277C7.98828 48.2129 7.13867 47.8125 6.29883 47.2266C5.45898 46.6406 4.64844 45.8105 3.86719 44.7363C3.08594 43.6621 2.40234 42.2852 1.81641 40.6055C1.42578 39.4727 1.11328 38.3203 0.878906 37.1484C0.644531 35.9766 0.458984 34.8242 0.322266 33.6914C0.185547 32.5586 0.0976562 31.5234 0.0585938 30.5859C0.0195312 29.6484 0 28.8281 0 28.125C0 25.8594 0.419922 23.7109 1.25977 21.6797C2.09961 19.6484 3.33008 17.8223 4.95117 16.2012C6.5332 14.5996 8.34961 13.3789 10.4004 12.5391C12.4512 11.6992 14.6094 11.2695 16.875 11.25H43.125C45.3906 11.25 47.5391 11.6699 49.5703 12.5098C51.6016 13.3496 53.4277 14.5801 55.0488 16.2012ZM54.6387 39.375C55.0098 38.3398 55.3027 37.2656 55.5176 36.1523C55.7324 35.0391 55.8887 33.9746 55.9863 32.959C56.084 31.9434 56.1523 31.0059 56.1914 30.1465C56.2305 29.2871 56.25 28.6133 56.25 28.125C56.25 26.3086 55.9082 24.6094 55.2246 23.0273C54.541 21.4453 53.6035 20.0586 52.4121 18.8672C51.2207 17.6758 49.834 16.7383 48.252 16.0547C46.6699 15.3711 44.9609 15.0195 43.125 15H16.875C15.0586 15 13.3594 15.3418 11.7773 16.0254C10.1953 16.709 8.80859 17.6465 7.61719 18.8379C6.42578 20.0293 5.48828 21.416 4.80469 22.998C4.12109 24.5801 3.76953 26.2891 3.75 28.125C3.75 28.6328 3.75977 29.3066 3.7793 30.1465C3.79883 30.9863 3.86719 31.9141 3.98438 32.9297C4.10156 33.9453 4.26758 35.0195 4.48242 36.1523C4.69727 37.2852 4.99023 38.3594 5.36133 39.375C5.84961 40.7812 6.38672 41.8652 6.97266 42.627C7.55859 43.3887 8.125 43.9453 8.67188 44.2969C9.21875 44.6484 9.72656 44.8535 10.1953 44.9121C10.6641 44.9707 11.0156 45 11.25 45C11.6797 45 12.1484 44.7461 12.6562 44.2383C13.1641 43.7305 13.7109 43.1445 14.2969 42.4805C14.7656 41.9336 15.2637 41.377 15.791 40.8105C16.3184 40.2441 16.9141 39.7168 17.5781 39.2285C18.2422 38.7402 18.9746 38.3398 19.7754 38.0273C20.5762 37.7148 21.4648 37.5391 22.4414 37.5H37.5586C38.5352 37.5391 39.4238 37.7148 40.2246 38.0273C41.0254 38.3398 41.748 38.7305 42.3926 39.1992C43.0371 39.668 43.6328 40.1953 44.1797 40.7812C44.7266 41.3672 45.2344 41.9336 45.7031 42.4805C46.2695 43.125 46.8066 43.7012 47.3145 44.209C47.8223 44.7168 48.3008 44.9805 48.75 45C48.9844 45 49.3262 44.9707 49.7754 44.9121C50.2246 44.8535 50.7324 44.6484 51.2988 44.2969C51.8652 43.9453 52.4414 43.3887 53.0273 42.627C53.6133 41.8652 54.1504 40.7812 54.6387 39.375ZM15 26.25H18.75V30H15V33.75H11.25V30H7.5V26.25H11.25V22.5H15V26.25ZM48.75 30C49.2773 30 49.7656 30.0977 50.2148 30.293C50.6641 30.4883 51.0547 30.752 51.3867 31.084C51.7188 31.416 51.9922 31.8164 52.207 32.2852C52.4219 32.7539 52.5195 33.2422 52.5 33.75C52.5 34.2773 52.4023 34.7656 52.207 35.2148C52.0117 35.6641 51.748 36.0547 51.416 36.3867C51.084 36.7188 50.6836 36.9922 50.2148 37.207C49.7461 37.4219 49.2578 37.5195 48.75 37.5C48.2227 37.5 47.7344 37.4023 47.2852 37.207C46.8359 37.0117 46.4453 36.748 46.1133 36.416C45.7812 36.084 45.5078 35.6836 45.293 35.2148C45.0781 34.7461 44.9805 34.2578 45 33.75C45 33.2227 45.0977 32.7344 45.293 32.2852C45.4883 31.8359 45.752 31.4453 46.084 31.1133C46.416 30.7812 46.8164 30.5078 47.2852 30.293C47.7539 30.0781 48.2422 29.9805 48.75 30ZM41.25 22.5C41.7773 22.5 42.2656 22.5977 42.7148 22.793C43.1641 22.9883 43.5547 23.252 43.8867 23.584C44.2188 23.916 44.4922 24.3164 44.707 24.7852C44.9219 25.2539 45.0195 25.7422 45 26.25C45 26.7773 44.9023 27.2656 44.707 27.7148C44.5117 28.1641 44.248 28.5547 43.916 28.8867C43.584 29.2188 43.1836 29.4922 42.7148 29.707C42.2461 29.9219 41.7578 30.0195 41.25 30C40.7227 30 40.2344 29.9023 39.7852 29.707C39.3359 29.5117 38.9453 29.248 38.6133 28.916C38.2812 28.584 38.0078 28.1836 37.793 27.7148C37.5781 27.2461 37.4805 26.7578 37.5 26.25C37.5 25.7227 37.5977 25.2344 37.793 24.7852C37.9883 24.3359 38.252 23.9453 38.584 23.6133C38.916 23.2812 39.3164 23.0078 39.7852 22.793C40.2539 22.5781 40.7422 22.4805 41.25 22.5Z" fill="#EB973F" stroke="#FFFAEA" stroke-width="2.2" mask="url(#path-1-inside-1_40_935)"/>
</g>
<defs>
<clipPath id="clip0_40_935">
<rect width="60" height="60" fill="white"/>
</clipPath>
</defs>
</svg>
