<svg width="60" height="60" viewBox="0 0 60 60" fill="none" xmlns="http://www.w3.org/2000/svg">
<path d="M43.0352 28.8936C43.3959 28.7726 43.7896 28.8009 44.1299 28.9727V28.9736L50.4023 32.1357C50.6427 32.2569 50.8454 32.4436 50.9863 32.6758C51.1273 32.908 51.2007 33.1763 51.1982 33.4492C51.1958 33.722 51.1176 33.9882 50.9727 34.2178C50.8277 34.4474 50.6223 34.6313 50.3799 34.748C46.3013 36.7138 42.2446 37.8436 37.6885 38.0508H37.6074C34.1446 38.0508 31.5382 36.742 29.2275 35.5771L29.1279 35.5264C26.771 34.3382 24.708 33.3177 21.9727 33.3076H21.959L21.9463 33.3086C17.8255 33.4988 14.1533 34.5155 10.3936 36.3291C10.0504 36.4943 9.65618 36.5153 9.29785 36.3877C8.93941 36.2599 8.64453 35.9928 8.47949 35.6445C8.3145 35.2961 8.29325 34.8955 8.4209 34.5312C8.5485 34.1671 8.81404 33.8706 9.15723 33.7051L9.1582 33.7041C12.9834 31.8591 16.792 30.7506 21.0127 30.4502L21.8623 30.4014H21.9268C25.3895 30.4014 27.9986 31.7104 30.3057 32.875L30.3115 32.8779L30.415 32.9287C32.7668 34.1158 34.8282 35.1345 37.5645 35.1445H37.5898C40.1685 35.0313 42.7197 34.5608 45.1709 33.7461L46.3652 33.3486L45.2412 32.7822L42.8447 31.5742H42.8457C42.5053 31.4023 42.245 31.1002 42.124 30.7334C42.0031 30.3666 42.0316 29.9664 42.2031 29.6211C42.3746 29.2759 42.6743 29.0146 43.0352 28.8936ZM43.5898 16.1748C43.7307 16.185 43.8694 16.2166 44.001 16.2676L44.1299 16.3252L50.4023 19.4873C50.6427 19.6084 50.8454 19.7952 50.9863 20.0273C51.1273 20.2596 51.2007 20.5278 51.1982 20.8008C51.1958 21.0736 51.1176 21.3398 50.9727 21.5693C50.8277 21.7989 50.6222 21.9828 50.3799 22.0996C46.5511 23.9421 42.7421 25.0534 38.5215 25.3516L37.6768 25.3994L37.6074 25.4023L37.2852 25.3984C33.9819 25.3206 31.466 24.0572 29.2275 22.9287L28.2549 22.4424C26.2429 21.4513 24.3627 20.6708 21.9727 20.6592H21.96L21.9463 20.6602C17.8286 20.8504 14.1534 21.8672 10.3906 23.6807L10.3809 23.6855C10.2105 23.7718 10.0249 23.8229 9.83496 23.8359C9.64495 23.849 9.4538 23.8239 9.27344 23.7617C9.09301 23.6994 8.92605 23.601 8.7832 23.4727C8.64043 23.3444 8.52407 23.1883 8.44141 23.0137C8.35876 22.839 8.31085 22.6488 8.30176 22.4551C8.29269 22.2614 8.32266 22.0677 8.38867 21.8857C8.4547 21.7038 8.55613 21.537 8.68652 21.3955C8.81686 21.2541 8.97357 21.1407 9.14746 21.0615L9.15723 21.0566C13.2413 19.0913 17.2999 17.9579 21.8623 17.7559L21.8613 17.7549L21.9395 17.7529C25.3958 17.7561 28.0015 19.0634 30.3057 20.2266L30.3115 20.2295L30.415 20.2803C32.7675 21.4678 34.8287 22.4828 37.5645 22.4961H37.5898C40.1685 22.3828 42.7197 21.9123 45.1709 21.0977L46.3643 20.7002L45.2412 20.1338L42.8486 18.9258H42.8477C42.679 18.841 42.5284 18.723 42.4043 18.5791C42.2802 18.4351 42.1851 18.2674 42.125 18.0859C42.0649 17.9045 42.0403 17.7125 42.0537 17.5215C42.0638 17.3782 42.0948 17.237 42.1455 17.1035L42.2031 16.9727C42.288 16.8017 42.405 16.6492 42.5479 16.5244C42.6906 16.3997 42.8565 16.305 43.0352 16.2451C43.2138 16.1852 43.4023 16.1612 43.5898 16.1748ZM43.5898 3.52734C43.7307 3.53756 43.8694 3.56823 44.001 3.61914L44.1299 3.67676L50.4023 6.83887C50.6426 6.95996 50.8454 7.14679 50.9863 7.37891C51.1273 7.61117 51.2006 7.87937 51.1982 8.15234C51.1958 8.42532 51.1177 8.69221 50.9727 8.92188C50.8277 9.15129 50.6221 9.33443 50.3799 9.45117C46.541 11.3003 42.3862 12.4057 38.4609 12.7031L37.6787 12.752L37.5977 12.7539C34.1381 12.7507 31.5353 11.4446 29.2275 10.2812L29.1279 10.2305C26.7702 9.04186 24.7043 8.02504 21.9727 8.01172H21.9463C17.8287 8.20191 14.1534 9.21874 10.3906 11.0322L10.3809 11.0371C10.2104 11.1234 10.0249 11.1744 9.83496 11.1875C9.64493 11.2005 9.45381 11.1755 9.27344 11.1133C9.09297 11.051 8.92608 10.9526 8.7832 10.8242C8.64039 10.6959 8.52407 10.5399 8.44141 10.3652C8.35873 10.1905 8.31083 10.0004 8.30176 9.80664C8.29269 9.61289 8.32264 9.41927 8.38867 9.2373C8.4547 9.05538 8.55616 8.88856 8.68652 8.74707C8.81685 8.60571 8.9736 8.49227 9.14746 8.41309L9.15723 8.4082C13.2413 6.4429 17.2999 5.30945 21.8623 5.10742L21.8613 5.10645L21.9268 5.10449V5.10547C25.3894 5.10549 27.9987 6.41351 30.3057 7.57812L30.3115 7.58203L30.4102 7.62891V7.62988C32.7636 8.81475 34.826 9.8343 37.5576 9.84766L37.5742 9.84863L37.5898 9.84766C40.153 9.70273 42.687 9.22595 45.1299 8.43066L46.3359 8.03809L45.2041 7.4668L42.8486 6.27734H42.8477C42.6789 6.19251 42.5284 6.07465 42.4043 5.93066C42.2802 5.78661 42.1851 5.61902 42.125 5.4375C42.0649 5.25598 42.0403 5.06409 42.0537 4.87305C42.0638 4.72969 42.0948 4.58864 42.1455 4.45508L42.2031 4.32422C42.2879 4.15346 42.4052 4.00161 42.5479 3.87695C42.6907 3.75222 42.8564 3.65661 43.0352 3.59668C43.2138 3.53681 43.4023 3.51377 43.5898 3.52734Z" fill="#722F37" stroke="#FFFAEA" stroke-width="1.0463"/>
<path d="M6.045 43.8888H8.625V53.7588H7.17V45.2838H6.045V43.8888ZM16.7415 43.8888L14.1015 48.1338L13.2315 47.7288C13.3615 47.6588 13.5065 47.6088 13.6665 47.5788C13.8265 47.5488 13.9865 47.5338 14.1465 47.5338C14.5165 47.5138 14.8765 47.5538 15.2265 47.6538C15.5765 47.7538 15.8915 47.9188 16.1715 48.1488C16.4515 48.3788 16.6715 48.6838 16.8315 49.0638C17.0015 49.4438 17.0865 49.9138 17.0865 50.4738C17.0865 51.1738 16.9265 51.7788 16.6065 52.2888C16.2865 52.7988 15.8615 53.1938 15.3315 53.4738C14.8115 53.7438 14.2315 53.8788 13.5915 53.8788C13.1115 53.8788 12.6315 53.7838 12.1515 53.5938C11.6815 53.3938 11.2915 53.1338 10.9815 52.8138L11.7165 51.6138C11.9065 51.8338 12.1665 52.0338 12.4965 52.2138C12.8365 52.3938 13.1865 52.4838 13.5465 52.4838C13.9265 52.4838 14.2665 52.3988 14.5665 52.2288C14.8765 52.0588 15.1215 51.8188 15.3015 51.5088C15.4915 51.1888 15.5865 50.8188 15.5865 50.3988C15.5865 49.8188 15.4165 49.3638 15.0765 49.0338C14.7465 48.7038 14.2915 48.5388 13.7115 48.5388C13.4215 48.5388 13.1765 48.5638 12.9765 48.6138C12.7765 48.6538 12.5965 48.7038 12.4365 48.7638L12.3915 48.7038L14.7165 45.0888L15.1665 45.2838H11.5515V43.8888H16.7415ZM25.2442 47.5488L25.3642 48.9438L25.3042 48.8238C25.5342 48.3538 25.8592 47.9838 26.2792 47.7138C26.7092 47.4438 27.1992 47.3088 27.7492 47.3088C28.0992 47.3088 28.4092 47.3638 28.6792 47.4738C28.9492 47.5838 29.1692 47.7438 29.3392 47.9538C29.5192 48.1538 29.6342 48.4038 29.6842 48.7038L29.6092 48.7488C29.8492 48.2988 30.1792 47.9488 30.5992 47.6988C31.0292 47.4388 31.4792 47.3088 31.9492 47.3088C32.5592 47.3088 33.0392 47.4838 33.3892 47.8338C33.7492 48.1738 33.9342 48.6188 33.9442 49.1688V53.7588H32.5492V49.6638C32.5392 49.3438 32.4592 49.0788 32.3092 48.8688C32.1692 48.6488 31.9192 48.5288 31.5592 48.5088C31.1992 48.5088 30.8742 48.6188 30.5842 48.8388C30.3042 49.0588 30.0842 49.3438 29.9242 49.6938C29.7642 50.0338 29.6792 50.4038 29.6692 50.8038V53.7588H28.2742V49.6638C28.2642 49.3438 28.1792 49.0788 28.0192 48.8688C27.8692 48.6488 27.6142 48.5288 27.2542 48.5088C26.8842 48.5088 26.5592 48.6188 26.2792 48.8388C25.9992 49.0588 25.7792 49.3438 25.6192 49.6938C25.4692 50.0438 25.3942 50.4188 25.3942 50.8188V53.7588H23.9992V47.5488H25.2442ZM36.3771 47.5488H37.7721V53.7588H36.3771V47.5488ZM36.2721 45.2988C36.2721 45.0788 36.3571 44.8938 36.5271 44.7438C36.7071 44.5938 36.9021 44.5188 37.1121 44.5188C37.3221 44.5188 37.5071 44.5938 37.6671 44.7438C37.8371 44.8938 37.9221 45.0788 37.9221 45.2988C37.9221 45.5288 37.8371 45.7188 37.6671 45.8688C37.5071 46.0088 37.3221 46.0788 37.1121 46.0788C36.9021 46.0788 36.7071 46.0038 36.5271 45.8538C36.3571 45.7038 36.2721 45.5188 36.2721 45.2988ZM41.4307 47.5488L41.5507 49.0638L41.4907 48.8238C41.6907 48.3638 42.0157 47.9988 42.4657 47.7288C42.9157 47.4488 43.4357 47.3088 44.0257 47.3088C44.6157 47.3088 45.0957 47.4838 45.4657 47.8338C45.8457 48.1738 46.0407 48.6188 46.0507 49.1688V53.7588H44.6407V49.6638C44.6307 49.3238 44.5307 49.0488 44.3407 48.8388C44.1607 48.6188 43.8757 48.5088 43.4857 48.5088C43.1257 48.5088 42.8007 48.6088 42.5107 48.8088C42.2207 49.0088 41.9907 49.2838 41.8207 49.6338C41.6607 49.9838 41.5807 50.3888 41.5807 50.8488V53.7588H40.1857V47.5488H41.4307ZM50.2167 53.8788C49.7767 53.8788 49.3467 53.8038 48.9267 53.6538C48.5167 53.4938 48.1767 53.2588 47.9067 52.9488L48.4917 52.1388C48.7517 52.3888 49.0167 52.5788 49.2867 52.7088C49.5667 52.8288 49.8417 52.8888 50.1117 52.8888C50.3117 52.8888 50.4967 52.8638 50.6667 52.8138C50.8367 52.7638 50.9717 52.6838 51.0717 52.5738C51.1817 52.4538 51.2367 52.2938 51.2367 52.0938C51.2367 51.8738 51.1617 51.6988 51.0117 51.5688C50.8717 51.4388 50.6867 51.3338 50.4567 51.2538C50.2367 51.1738 50.0017 51.0988 49.7517 51.0288C49.2417 50.8588 48.8517 50.6238 48.5817 50.3238C48.3117 50.0238 48.1767 49.6588 48.1767 49.2288C48.1767 48.8988 48.2567 48.5938 48.4167 48.3138C48.5867 48.0238 48.8317 47.7888 49.1517 47.6088C49.4817 47.4288 49.8867 47.3388 50.3667 47.3388C50.7967 47.3388 51.1817 47.3938 51.5217 47.5038C51.8617 47.6038 52.1817 47.7738 52.4817 48.0138L51.9267 48.8838C51.7467 48.6938 51.5317 48.5538 51.2817 48.4638C51.0317 48.3738 50.8067 48.3238 50.6067 48.3138C50.4367 48.3038 50.2717 48.3288 50.1117 48.3888C49.9617 48.4488 49.8367 48.5338 49.7367 48.6438C49.6367 48.7538 49.5867 48.8838 49.5867 49.0338C49.5867 49.2438 49.6567 49.4138 49.7967 49.5438C49.9367 49.6738 50.1167 49.7788 50.3367 49.8588C50.5667 49.9288 50.7917 50.0038 51.0117 50.0838C51.3217 50.1738 51.5967 50.2938 51.8367 50.4438C52.0767 50.5938 52.2667 50.7788 52.4067 50.9988C52.5567 51.2188 52.6317 51.4938 52.6317 51.8238C52.6317 52.1938 52.5417 52.5388 52.3617 52.8588C52.1917 53.1688 51.9267 53.4188 51.5667 53.6088C51.2167 53.7888 50.7667 53.8788 50.2167 53.8788Z" fill="#722F37"/>
</svg>
