<svg width="65" height="60" viewBox="0 0 65 60" fill="none" xmlns="http://www.w3.org/2000/svg">
<path d="M36.6982 29.748C36.9999 29.647 37.3256 29.6549 37.6201 29.7686L37.7441 29.8242L43.7393 32.8457C43.9689 32.9614 44.1622 33.1405 44.2969 33.3623C44.4316 33.5843 44.5023 33.8407 44.5 34.1016C44.4977 34.3625 44.4228 34.6174 44.2842 34.8369C44.1456 35.0563 43.9485 35.2312 43.7168 35.3428C39.8188 37.2215 35.9422 38.302 31.5879 38.5H31.5098C28.2003 38.4999 25.7093 37.249 23.501 36.1357L23.4053 36.0879C21.1527 34.9523 19.1816 33.9764 16.5674 33.9668H16.5547L16.542 33.9678C12.8498 34.1382 9.53456 35.0026 6.17383 36.5381L5.5 36.8545C5.1721 37.0122 4.79545 37.0321 4.45312 36.9102C4.11061 36.788 3.82861 36.533 3.6709 36.2002C3.5132 35.8672 3.49322 35.4839 3.61523 35.1357C3.72198 34.8314 3.92938 34.5761 4.19922 34.4111L4.31934 34.3457C8.21416 32.4671 12.091 31.3875 16.4453 31.1895H16.5234C19.8327 31.1895 22.3264 32.4397 24.5312 33.5527L24.5371 33.5557L24.6367 33.6045C26.8842 34.739 28.8547 35.7131 31.4697 35.7227H31.4814L31.4932 35.7217C33.9577 35.6135 36.3955 35.1634 38.7383 34.3848L39.8799 34.0059L38.8057 33.4639L36.5156 32.3096H36.5166C36.1914 32.1453 35.9428 31.8572 35.8271 31.5068C35.7115 31.1563 35.7385 30.7734 35.9023 30.4434C36.0663 30.1134 36.3533 29.8637 36.6982 29.748ZM37.2285 17.5918C37.3629 17.6016 37.4946 17.6322 37.6201 17.6807L37.7441 17.7354L43.7393 20.7578C43.9689 20.8736 44.1622 21.0525 44.2969 21.2744C44.4315 21.4963 44.5022 21.752 44.5 22.0127C44.4977 22.2736 44.4228 22.5286 44.2842 22.748C44.1457 22.9673 43.9492 23.1423 43.7178 23.2539C40.0584 25.0149 36.4176 26.0774 32.3838 26.3623L31.5723 26.4092L31.5098 26.4111C28.2003 26.411 25.7093 25.1602 23.501 24.0469L23.4053 23.999C21.1519 22.863 19.1781 21.8907 16.5674 21.8779H16.5547L16.542 21.8789C12.6067 22.0607 9.09426 23.0325 5.49805 24.7656L5.48828 24.7695C5.32525 24.8521 5.14753 24.9016 4.96582 24.9141C4.78427 24.9265 4.60201 24.9023 4.42969 24.8428C4.25717 24.7832 4.0975 24.6891 3.96094 24.5664C3.82456 24.4438 3.71373 24.2947 3.63477 24.1279C3.55574 23.9609 3.51062 23.7789 3.50195 23.5938C3.49332 23.4087 3.5209 23.2236 3.58398 23.0498C3.64702 22.8761 3.74377 22.7172 3.86816 22.582C3.99277 22.4468 4.14329 22.3375 4.30957 22.2617L4.31934 22.2578C8.22244 20.3796 12.1007 19.2957 16.4609 19.1025L16.5332 19.1006C19.8378 19.1031 22.3285 20.3529 24.5312 21.4648L24.5371 21.4678L24.6367 21.5156C26.8849 22.6505 28.8543 23.6211 31.4688 23.6338H31.4805L31.4932 23.6328C33.9576 23.5246 36.3956 23.0754 38.7383 22.2969L39.8789 21.917L38.8066 21.376L36.5195 20.2217L36.5186 20.2207L36.4014 20.1543C36.2871 20.082 36.1837 19.9929 36.0947 19.8896C35.9761 19.7519 35.8846 19.5915 35.8271 19.418C35.7698 19.2446 35.747 19.0613 35.7598 18.8789C35.7726 18.6963 35.8213 18.5179 35.9023 18.3545C35.9834 18.1911 36.096 18.046 36.2324 17.9268C36.3688 17.8076 36.5266 17.7165 36.6973 17.6592C36.8681 17.6019 37.0491 17.5788 37.2285 17.5918ZM37.2285 5.50391C37.3628 5.51368 37.4947 5.54332 37.6201 5.5918L37.7441 5.64648L43.7393 8.66895C43.9689 8.78471 44.1622 8.96363 44.2969 9.18555C44.4316 9.40754 44.5023 9.6639 44.5 9.9248C44.4976 10.1855 44.4226 10.4399 44.2842 10.6592C44.1456 10.8786 43.9485 11.0544 43.7168 11.166C40.048 12.9331 36.0775 13.9892 32.3262 14.2734L31.5791 14.3203L31.5029 14.3223C28.1954 14.3197 25.7071 13.0711 23.501 11.959L23.4053 11.9102C21.152 10.7742 19.178 9.80277 16.5674 9.79004L16.5547 9.78906L16.542 9.79004C12.6067 9.97182 9.09423 10.9436 5.49805 12.6768L5.48828 12.6816C5.32533 12.7642 5.14742 12.8127 4.96582 12.8252C4.78423 12.8376 4.60204 12.8134 4.42969 12.7539C4.25717 12.6943 4.09751 12.6002 3.96094 12.4775C3.82457 12.3549 3.71371 12.2059 3.63477 12.0391C3.55581 11.8721 3.51067 11.6909 3.50195 11.5059C3.49329 11.3207 3.52088 11.1349 3.58398 10.9609C3.64704 10.7873 3.74376 10.6283 3.86816 10.4932C3.99277 10.3579 4.14328 10.2496 4.30957 10.1738L4.31934 10.1689C8.2224 8.29076 12.1007 7.20682 16.4609 7.01367L16.5332 7.01172C19.4245 7.01391 21.6929 7.97102 23.6904 8.95508L24.5312 9.37598L24.5371 9.37891L24.6309 9.42383V9.4248C26.8804 10.5574 28.8519 11.5322 31.4629 11.5449H31.4785L31.4932 11.5439C33.9429 11.4054 36.3654 10.9505 38.7002 10.1904L39.8525 9.81543L38.7705 9.26855L36.5195 8.13281H36.5186C36.3572 8.0517 36.2133 7.93847 36.0947 7.80078C35.9761 7.66307 35.8846 7.50264 35.8271 7.3291C35.7698 7.15574 35.7469 6.97248 35.7598 6.79004C35.7726 6.60739 35.8212 6.42909 35.9023 6.26562C35.9834 6.10227 36.0959 5.9571 36.2324 5.83789C36.3688 5.71879 36.5266 5.62758 36.6973 5.57031C36.8681 5.51304 37.0491 5.49089 37.2285 5.50391Z" fill="#ECAE6D" stroke="#FFFAEA"/>
<path d="M3.742 44.788H6.15V54H4.792V46.09H3.742V44.788ZM13.7254 44.788L11.2614 48.75L10.4494 48.372C10.5708 48.3067 10.7061 48.26 10.8554 48.232C11.0048 48.204 11.1541 48.19 11.3034 48.19C11.6488 48.1713 11.9848 48.2087 12.3114 48.302C12.6381 48.3953 12.9321 48.5493 13.1934 48.764C13.4548 48.9787 13.6601 49.2633 13.8094 49.618C13.9681 49.9727 14.0474 50.4113 14.0474 50.934C14.0474 51.5873 13.8981 52.152 13.5994 52.628C13.3008 53.104 12.9041 53.4727 12.4094 53.734C11.9241 53.986 11.3828 54.112 10.7854 54.112C10.3374 54.112 9.88942 54.0233 9.44142 53.846C9.00276 53.6593 8.63876 53.4167 8.34942 53.118L9.03542 51.998C9.21276 52.2033 9.45542 52.39 9.76342 52.558C10.0808 52.726 10.4074 52.81 10.7434 52.81C11.0981 52.81 11.4154 52.7307 11.6954 52.572C11.9848 52.4133 12.2134 52.1893 12.3814 51.9C12.5588 51.6013 12.6474 51.256 12.6474 50.864C12.6474 50.3227 12.4888 49.898 12.1714 49.59C11.8634 49.282 11.4388 49.128 10.8974 49.128C10.6268 49.128 10.3981 49.1513 10.2114 49.198C10.0248 49.2353 9.85676 49.282 9.70742 49.338L9.66542 49.282L11.8354 45.908L12.2554 46.09H8.88142V44.788H13.7254ZM21.6612 48.204L21.7732 49.506L21.7172 49.394C21.9319 48.9553 22.2352 48.61 22.6272 48.358C23.0286 48.106 23.4859 47.98 23.9992 47.98C24.3259 47.98 24.6152 48.0313 24.8672 48.134C25.1192 48.2367 25.3246 48.386 25.4832 48.582C25.6512 48.7687 25.7586 49.002 25.8052 49.282L25.7352 49.324C25.9592 48.904 26.2672 48.5773 26.6592 48.344C27.0606 48.1013 27.4806 47.98 27.9192 47.98C28.4886 47.98 28.9366 48.1433 29.2632 48.47C29.5992 48.7873 29.7719 49.2027 29.7812 49.716V54H28.4792V50.178C28.4699 49.8793 28.3952 49.632 28.2552 49.436C28.1246 49.2307 27.8912 49.1187 27.5552 49.1C27.2192 49.1 26.9159 49.2027 26.6452 49.408C26.3839 49.6133 26.1786 49.8793 26.0292 50.206C25.8799 50.5233 25.8006 50.8687 25.7912 51.242V54H24.4892V50.178C24.4799 49.8793 24.4006 49.632 24.2512 49.436C24.1112 49.2307 23.8732 49.1187 23.5372 49.1C23.1919 49.1 22.8886 49.2027 22.6272 49.408C22.3659 49.6133 22.1606 49.8793 22.0112 50.206C21.8712 50.5327 21.8012 50.8827 21.8012 51.256V54H20.4992V48.204H21.6612ZM32.052 48.204H33.354V54H32.052V48.204ZM31.954 46.104C31.954 45.8987 32.0333 45.726 32.192 45.586C32.36 45.446 32.542 45.376 32.738 45.376C32.934 45.376 33.1066 45.446 33.256 45.586C33.4146 45.726 33.494 45.8987 33.494 46.104C33.494 46.3187 33.4146 46.496 33.256 46.636C33.1066 46.7667 32.934 46.832 32.738 46.832C32.542 46.832 32.36 46.762 32.192 46.622C32.0333 46.482 31.954 46.3093 31.954 46.104ZM36.7687 48.204L36.8807 49.618L36.8247 49.394C37.0113 48.9647 37.3147 48.624 37.7347 48.372C38.1547 48.1107 38.64 47.98 39.1907 47.98C39.7413 47.98 40.1893 48.1433 40.5347 48.47C40.8893 48.7873 41.0713 49.2027 41.0807 49.716V54H39.7647V50.178C39.7553 49.8607 39.662 49.604 39.4847 49.408C39.3167 49.2027 39.0507 49.1 38.6867 49.1C38.3507 49.1 38.0473 49.1933 37.7767 49.38C37.506 49.5667 37.2913 49.8233 37.1327 50.15C36.9833 50.4767 36.9087 50.8547 36.9087 51.284V54H35.6067V48.204H36.7687ZM44.9689 54.112C44.5583 54.112 44.1569 54.042 43.7649 53.902C43.3823 53.7527 43.0649 53.5333 42.8129 53.244L43.3589 52.488C43.6016 52.7213 43.8489 52.8987 44.1009 53.02C44.3623 53.132 44.6189 53.188 44.8709 53.188C45.0576 53.188 45.2303 53.1647 45.3889 53.118C45.5476 53.0713 45.6736 52.9967 45.7669 52.894C45.8696 52.782 45.9209 52.6327 45.9209 52.446C45.9209 52.2407 45.8509 52.0773 45.7109 51.956C45.5803 51.8347 45.4076 51.7367 45.1929 51.662C44.9876 51.5873 44.7683 51.5173 44.5349 51.452C44.0589 51.2933 43.6949 51.074 43.4429 50.794C43.1909 50.514 43.0649 50.1733 43.0649 49.772C43.0649 49.464 43.1396 49.1793 43.2889 48.918C43.4476 48.6473 43.6763 48.428 43.9749 48.26C44.2829 48.092 44.6609 48.008 45.1089 48.008C45.5103 48.008 45.8696 48.0593 46.1869 48.162C46.5043 48.2553 46.8029 48.414 47.0829 48.638L46.5649 49.45C46.3969 49.2727 46.1963 49.142 45.9629 49.058C45.7296 48.974 45.5196 48.9273 45.3329 48.918C45.1743 48.9087 45.0203 48.932 44.8709 48.988C44.7309 49.044 44.6143 49.1233 44.5209 49.226C44.4276 49.3287 44.3809 49.45 44.3809 49.59C44.3809 49.786 44.4463 49.9447 44.5769 50.066C44.7076 50.1873 44.8756 50.2853 45.0809 50.36C45.2956 50.4253 45.5056 50.4953 45.7109 50.57C46.0003 50.654 46.2569 50.766 46.4809 50.906C46.7049 51.046 46.8823 51.2187 47.0129 51.424C47.1529 51.6293 47.2229 51.886 47.2229 52.194C47.2229 52.5393 47.1389 52.8613 46.9709 53.16C46.8123 53.4493 46.5649 53.6827 46.2289 53.86C45.9023 54.028 45.4823 54.112 44.9689 54.112ZM54.0358 45.656H55.3378V48.232H56.9338V49.254H55.3378V54H54.0358V49.254H52.9718V48.232H54.0358V45.656ZM58.003 51.046C58.003 50.4673 58.1384 49.9447 58.409 49.478C58.689 49.0113 59.0717 48.6427 59.557 48.372C60.0424 48.1013 60.593 47.966 61.209 47.966C61.8437 47.966 62.399 48.1013 62.875 48.372C63.351 48.6427 63.7197 49.0113 63.981 49.478C64.2424 49.9447 64.373 50.4673 64.373 51.046C64.373 51.6247 64.2424 52.152 63.981 52.628C63.7197 53.0947 63.3464 53.4633 62.861 53.734C62.385 54.0047 61.8297 54.14 61.195 54.14C60.579 54.14 60.0284 54.014 59.543 53.762C59.067 53.5007 58.689 53.1413 58.409 52.684C58.1384 52.2173 58.003 51.6713 58.003 51.046ZM59.305 51.06C59.305 51.4333 59.389 51.774 59.557 52.082C59.725 52.3807 59.949 52.6187 60.229 52.796C60.5184 52.9733 60.8357 53.062 61.181 53.062C61.545 53.062 61.867 52.9733 62.147 52.796C62.4364 52.6187 62.6604 52.3807 62.819 52.082C62.9777 51.774 63.057 51.4333 63.057 51.06C63.057 50.6867 62.9777 50.3507 62.819 50.052C62.6604 49.744 62.4364 49.5013 62.147 49.324C61.867 49.1373 61.545 49.044 61.181 49.044C60.8264 49.044 60.5044 49.1373 60.215 49.324C59.935 49.5107 59.711 49.758 59.543 50.066C59.3844 50.3647 59.305 50.696 59.305 51.06Z" fill="#ECAE6D"/>
</svg>
