<svg width="251" height="24" viewBox="0 0 251 24" fill="none" xmlns="http://www.w3.org/2000/svg">
<path d="M0.48 23.52C0.16 23.52 0 23.4027 0 23.168C0 22.976 0.138667 22.848 0.416 22.784L1.152 22.656C1.6 22.5707 1.888 22.4533 2.016 22.304C2.16533 22.1547 2.24 21.856 2.24 21.408V2.592C2.24 2.144 2.16533 1.84533 2.016 1.696C1.888 1.54667 1.6 1.42933 1.152 1.344L0.416 1.216C0.138667 1.152 0 1.024 0 0.831999C0 0.597333 0.16 0.48 0.48 0.48H6.976C8.04267 0.48 8.992 0.703999 9.824 1.152C10.656 1.6 11.3067 2.208 11.776 2.976C12.2667 3.744 12.512 4.61867 12.512 5.6C12.512 6.56 12.224 7.456 11.648 8.288C11.0933 9.09867 10.2827 9.78133 9.216 10.336C9.088 10.4 9.024 10.4853 9.024 10.592C9.024 10.6987 9.09867 10.7733 9.248 10.816C10.6987 11.3067 11.8187 12.096 12.608 13.184C13.3973 14.2507 13.792 15.52 13.792 16.992C13.792 18.2507 13.504 19.3813 12.928 20.384C12.352 21.3653 11.552 22.1333 10.528 22.688C9.52533 23.2427 8.384 23.52 7.104 23.52H0.48ZM6.208 10.368C7.33867 10.368 8.27733 9.93067 9.024 9.056C9.792 8.16 10.176 7.05067 10.176 5.728C10.176 4.40533 9.81333 3.33867 9.088 2.528C8.36267 1.696 7.40267 1.28 6.208 1.28C5.07733 1.28 4.512 1.70667 4.512 2.56V8.608C4.512 9.22667 4.64 9.67467 4.896 9.952C5.17333 10.2293 5.61067 10.368 6.208 10.368ZM6.688 22.72C8.07467 22.72 9.20533 22.1973 10.08 21.152C10.9547 20.0853 11.392 18.6667 11.392 16.896C11.392 15.1253 10.944 13.728 10.048 12.704C9.17333 11.68 7.98933 11.168 6.496 11.168C5.17333 11.168 4.512 11.6907 4.512 12.736V20.512C4.512 21.984 5.23733 22.72 6.688 22.72Z" fill="#EB973F"/>
<path d="M15.5112 23.52C15.1912 23.52 15.0312 23.4027 15.0312 23.168C15.0312 22.976 15.1699 22.848 15.4473 22.784L16.1833 22.656C16.6313 22.5707 16.9193 22.4533 17.0473 22.304C17.1966 22.1547 17.2712 21.856 17.2712 21.408V2.592C17.2712 2.144 17.1966 1.84533 17.0473 1.696C16.9193 1.54667 16.6313 1.42933 16.1833 1.344L15.4473 1.216C15.1699 1.152 15.0312 1.024 15.0312 0.831999C15.0312 0.597333 15.1912 0.48 15.5112 0.48H21.3032C21.6232 0.48 21.7833 0.597333 21.7833 0.831999C21.7833 1.024 21.6446 1.152 21.3673 1.216L20.6313 1.344C20.1833 1.42933 19.8846 1.54667 19.7353 1.696C19.6073 1.84533 19.5433 2.144 19.5433 2.592V21.408C19.5433 21.856 19.6073 22.1547 19.7353 22.304C19.8846 22.4533 20.1833 22.5707 20.6313 22.656L21.3673 22.784C21.6446 22.848 21.7833 22.976 21.7833 23.168C21.7833 23.4027 21.6232 23.52 21.3032 23.52H15.5112Z" fill="#EB973F"/>
<path d="M36.792 23.808C34.936 23.808 33.752 22.592 33.24 20.16L32.504 16.608C32.2693 15.456 32.0027 14.5813 31.704 13.984C31.4267 13.3867 31.032 12.9813 30.52 12.768C30.0293 12.5547 29.3467 12.448 28.472 12.448C28.1733 12.448 27.9387 12.5333 27.768 12.704C27.5973 12.8533 27.512 13.0453 27.512 13.28V21.28C27.512 21.728 27.5973 22.0373 27.768 22.208C27.9387 22.3573 28.3227 22.4853 28.92 22.592L30.104 22.784C30.3387 22.8267 30.456 22.944 30.456 23.136C30.456 23.392 30.296 23.52 29.976 23.52H23.48C23.16 23.52 23 23.4027 23 23.168C23 22.976 23.1387 22.848 23.416 22.784L24.152 22.656C24.6 22.5707 24.888 22.4533 25.016 22.304C25.1653 22.1547 25.24 21.856 25.24 21.408V2.592C25.24 2.144 25.1653 1.84533 25.016 1.696C24.888 1.54667 24.6 1.42933 24.152 1.344L23.416 1.216C23.1387 1.152 23 1.024 23 0.831999C23 0.597333 23.16 0.48 23.48 0.48H29.976C31.2347 0.48 32.3547 0.725333 33.336 1.216C34.3173 1.70667 35.0853 2.38933 35.64 3.264C36.1947 4.11733 36.472 5.10933 36.472 6.24C36.472 7.584 36.0667 8.8 35.256 9.888C34.4453 10.9547 33.4213 11.712 32.184 12.16C32.0347 12.2027 31.9493 12.2773 31.928 12.384C31.928 12.4693 32.0027 12.544 32.152 12.608C32.8347 12.928 33.368 13.376 33.752 13.952C34.1573 14.528 34.4667 15.296 34.68 16.256L35.384 19.52C35.6187 20.6293 35.896 21.4187 36.216 21.888C36.536 22.3573 36.9413 22.592 37.432 22.592C37.6027 22.592 37.752 22.5707 37.88 22.528C38.0293 22.464 38.2107 22.3573 38.424 22.208C38.5947 22.1013 38.7547 22.08 38.904 22.144C39.0533 22.1867 39.128 22.2933 39.128 22.464C39.128 22.8267 38.8933 23.1467 38.424 23.424C37.9547 23.68 37.4107 23.808 36.792 23.808ZM29.656 11.648C31.1067 11.648 32.2053 11.168 32.952 10.208C33.6987 9.22667 34.072 7.92533 34.072 6.304C34.072 4.72533 33.6347 3.49867 32.76 2.624C31.9067 1.728 30.7227 1.28 29.208 1.28C28.0773 1.28 27.512 1.70667 27.512 2.56V9.888C27.512 11.0613 28.2267 11.648 29.656 11.648Z" fill="#EB973F"/>
<path d="M47.169 23.808C45.5903 23.808 44.2037 23.3173 43.009 22.336C41.8357 21.3547 40.9183 19.9787 40.257 18.208C39.617 16.416 39.297 14.304 39.297 11.872C39.297 9.52533 39.649 7.47733 40.353 5.728C41.0783 3.95733 42.0383 2.592 43.233 1.632C44.449 0.650667 45.793 0.16 47.265 0.16C48.1397 0.16 48.9077 0.245333 49.569 0.415998C50.2303 0.565332 50.817 0.768 51.329 1.024C51.585 1.17333 51.713 1.39733 51.713 1.696L51.809 6.56C51.809 6.92267 51.681 7.104 51.425 7.104C51.1903 7.104 51.041 6.96533 50.977 6.688L50.657 5.504C50.209 3.84 49.6863 2.688 49.089 2.048C48.513 1.408 47.8197 1.088 47.009 1.088C45.5157 1.088 44.2677 2.016 43.265 3.872C42.2837 5.70667 41.793 8.37333 41.793 11.872C41.793 14.2613 42.0383 16.2773 42.529 17.92C43.041 19.5627 43.6917 20.8 44.481 21.632C45.2917 22.464 46.145 22.88 47.041 22.88C48.001 22.88 48.769 22.5813 49.345 21.984C49.9423 21.3867 50.4437 20.2347 50.849 18.528L51.233 16.96C51.297 16.64 51.4677 16.5013 51.745 16.544C51.9797 16.5867 52.097 16.768 52.097 17.088L51.969 22.272C51.969 22.5707 51.8303 22.7947 51.553 22.944C51.041 23.2 50.433 23.4027 49.729 23.552C49.0463 23.7227 48.193 23.808 47.169 23.808Z" fill="#EB973F"/>
<path d="M54.48 23.52C54.16 23.52 54 23.4027 54 23.168C54 22.976 54.1387 22.848 54.416 22.784L55.152 22.656C55.6 22.5707 55.888 22.4533 56.016 22.304C56.1653 22.1547 56.24 21.856 56.24 21.408V2.592C56.24 2.144 56.1653 1.84533 56.016 1.696C55.888 1.54667 55.6 1.42933 55.152 1.344L54.416 1.216C54.1387 1.152 54 1.024 54 0.831999C54 0.597333 54.16 0.48 54.48 0.48H60.336C60.656 0.48 60.816 0.608 60.816 0.864C60.816 1.056 60.6987 1.17333 60.464 1.216L59.6 1.344C59.152 1.408 58.8533 1.52533 58.704 1.696C58.576 1.86667 58.512 2.176 58.512 2.624V10.656C58.512 10.9547 58.6613 11.104 58.96 11.104H65.296C65.5947 11.104 65.744 10.9547 65.744 10.656V2.624C65.744 2.176 65.6693 1.86667 65.52 1.696C65.392 1.52533 65.104 1.408 64.656 1.344L63.792 1.216C63.5573 1.17333 63.44 1.056 63.44 0.864C63.44 0.608 63.6 0.48 63.92 0.48H69.776C70.096 0.48 70.256 0.597333 70.256 0.831999C70.256 1.024 70.1173 1.152 69.84 1.216L69.104 1.344C68.656 1.42933 68.3573 1.54667 68.208 1.696C68.08 1.84533 68.016 2.144 68.016 2.592V21.408C68.016 21.856 68.08 22.1547 68.208 22.304C68.3573 22.4533 68.656 22.5707 69.104 22.656L69.84 22.784C70.1173 22.848 70.256 22.976 70.256 23.168C70.256 23.4027 70.096 23.52 69.776 23.52H63.92C63.6 23.52 63.44 23.392 63.44 23.136C63.44 22.944 63.5573 22.8267 63.792 22.784L64.656 22.656C65.104 22.592 65.392 22.4747 65.52 22.304C65.6693 22.1333 65.744 21.824 65.744 21.376V12.512C65.744 12.2133 65.5947 12.064 65.296 12.064H58.96C58.6613 12.064 58.512 12.2133 58.512 12.512V21.376C58.512 21.824 58.576 22.1333 58.704 22.304C58.8533 22.4747 59.152 22.592 59.6 22.656L60.464 22.784C60.6987 22.8267 60.816 22.944 60.816 23.136C60.816 23.392 60.656 23.52 60.336 23.52H54.48Z" fill="#EB973F"/>
<path d="M76.7487 23.808C76.3221 23.808 75.8421 23.7653 75.3088 23.68C74.7968 23.5947 74.3061 23.488 73.8367 23.36C73.3887 23.232 73.0367 23.0933 72.7807 22.944C72.6314 22.8587 72.5141 22.7733 72.4287 22.688C72.3647 22.5813 72.3327 22.4107 72.3327 22.176L72.1728 17.152C72.1728 16.7253 72.3114 16.512 72.5888 16.512C72.8234 16.512 72.9834 16.704 73.0687 17.088L73.3568 18.304C74.0821 21.3547 75.4368 22.88 77.4208 22.88C78.4874 22.88 79.3301 22.528 79.9488 21.824C80.5888 21.0987 80.9088 20.0853 80.9088 18.784C80.9088 17.5253 80.5781 16.352 79.9167 15.264C79.2767 14.176 78.2421 13.0987 76.8128 12.032C75.2341 10.9013 74.0821 9.81333 73.3568 8.768C72.6314 7.70133 72.2688 6.57067 72.2688 5.376C72.2688 3.79733 72.8127 2.53867 73.9007 1.6C75.0101 0.639999 76.4181 0.16 78.1247 0.16C78.7647 0.16 79.3834 0.234666 79.9808 0.383999C80.5781 0.533333 81.0688 0.746667 81.4528 1.024C81.5808 1.10933 81.6768 1.20533 81.7408 1.312C81.8261 1.41867 81.8688 1.55733 81.8688 1.728L81.9648 6.56C81.9648 6.92267 81.8261 7.104 81.5488 7.104C81.3568 7.104 81.2181 6.95467 81.1328 6.656L80.9088 5.856C80.4394 4.21333 79.9488 3.01867 79.4368 2.272C78.9461 1.504 78.2314 1.12 77.2927 1.12C76.3754 1.12 75.6394 1.41867 75.0847 2.016C74.5514 2.61333 74.2848 3.456 74.2848 4.544C74.2848 5.46133 74.5834 6.336 75.1807 7.168C75.7781 8 76.8234 9.01333 78.3167 10.208C79.9167 11.5093 81.0794 12.768 81.8047 13.984C82.5514 15.1787 82.9248 16.4587 82.9248 17.824C82.9248 19.0187 82.6581 20.064 82.1247 20.96C81.5914 21.856 80.8554 22.56 79.9167 23.072C78.9994 23.5627 77.9434 23.808 76.7487 23.808Z" fill="#EB973F"/>
<path d="M87.418 23.52C87.098 23.52 86.938 23.4027 86.938 23.168C86.938 22.9333 87.0767 22.8053 87.354 22.784L88.794 22.56C89.2207 22.496 89.5087 22.3893 89.658 22.24C89.8073 22.0693 89.882 21.76 89.882 21.312V2.112C89.882 1.81333 89.818 1.6 89.69 1.472C89.562 1.344 89.2953 1.28 88.89 1.28C88.1007 1.28 87.322 1.62133 86.554 2.304C85.786 2.98667 85.2847 4.08533 85.05 5.6L84.89 6.656C84.8473 6.93333 84.698 7.072 84.442 7.072C84.122 7.072 83.9833 6.89067 84.026 6.528L84.314 0.736C84.3567 0.245333 84.5487 0 84.89 0C85.0393 0 85.178 0.0426668 85.306 0.128C85.434 0.191999 85.6473 0.266666 85.946 0.351999C86.266 0.437333 86.7673 0.48 87.45 0.48H94.586C95.2687 0.48 95.7593 0.437333 96.058 0.351999C96.378 0.266666 96.602 0.191999 96.73 0.128C96.8793 0.0426668 97.018 0 97.146 0C97.4873 0 97.6793 0.245333 97.722 0.736L98.01 6.528C98.0527 6.89067 97.914 7.072 97.594 7.072C97.338 7.072 97.1887 6.93333 97.146 6.656L96.986 5.6C96.7727 4.08533 96.282 2.98667 95.514 2.304C94.746 1.62133 93.9567 1.28 93.146 1.28C92.7407 1.28 92.474 1.344 92.346 1.472C92.218 1.6 92.154 1.81333 92.154 2.112V21.312C92.154 21.76 92.2287 22.0693 92.378 22.24C92.5487 22.3893 92.8367 22.496 93.242 22.56L94.682 22.784C94.9593 22.8053 95.098 22.9333 95.098 23.168C95.098 23.4027 94.938 23.52 94.618 23.52H87.418Z" fill="#EB973F"/>
<path d="M106.657 23.808C105.633 23.808 104.673 23.5093 103.777 22.912C102.881 22.2933 102.092 21.4507 101.409 20.384C100.748 19.3173 100.225 18.0693 99.841 16.64C99.4783 15.1893 99.297 13.632 99.297 11.968C99.297 10.304 99.4783 8.75733 99.841 7.328C100.225 5.89867 100.748 4.65067 101.409 3.584C102.092 2.496 102.881 1.65333 103.777 1.056C104.673 0.458667 105.633 0.16 106.657 0.16C107.681 0.16 108.63 0.458667 109.505 1.056C110.401 1.65333 111.19 2.496 111.873 3.584C112.556 4.65067 113.078 5.89867 113.441 7.328C113.825 8.75733 114.017 10.304 114.017 11.968C114.017 13.632 113.825 15.1893 113.441 16.64C113.078 18.0693 112.556 19.3173 111.873 20.384C111.19 21.4507 110.401 22.2933 109.505 22.912C108.63 23.5093 107.681 23.808 106.657 23.808ZM106.657 22.944C108.172 22.944 109.356 22.0373 110.209 20.224C111.062 18.4107 111.489 15.6587 111.489 11.968C111.489 8.27733 111.062 5.536 110.209 3.744C109.356 1.93067 108.172 1.024 106.657 1.024C105.164 1.024 103.98 1.93067 103.105 3.744C102.252 5.536 101.825 8.27733 101.825 11.968C101.825 15.6587 102.252 18.4107 103.105 20.224C103.98 22.0373 105.164 22.944 106.657 22.944Z" fill="#EB973F"/>
<path d="M128.776 23.808C128.435 23.808 128.147 23.552 127.912 23.04L119.24 4.224C119.176 4.07467 119.091 4.01067 118.984 4.032C118.899 4.05333 118.856 4.14933 118.856 4.32V20.768C118.856 21.3653 118.952 21.824 119.144 22.144C119.358 22.4427 119.731 22.6347 120.264 22.72L120.68 22.784C120.958 22.8053 121.096 22.9333 121.096 23.168C121.096 23.4027 120.936 23.52 120.616 23.52H116.04C115.72 23.52 115.56 23.4027 115.56 23.168C115.56 22.9333 115.699 22.8053 115.976 22.784L116.392 22.72C116.947 22.6347 117.331 22.4427 117.544 22.144C117.758 21.824 117.864 21.3653 117.864 20.768V2.592C117.864 2.144 117.79 1.84533 117.64 1.696C117.512 1.54667 117.203 1.42933 116.712 1.344L115.976 1.216C115.699 1.152 115.56 1.024 115.56 0.831999C115.56 0.597333 115.72 0.48 116.04 0.48H119.464C119.998 0.48 120.371 0.714666 120.584 1.184L128.136 17.792C128.2 17.92 128.275 17.9733 128.36 17.952C128.467 17.9307 128.52 17.856 128.52 17.728V3.232C128.52 2.54933 128.403 2.08 128.168 1.824C127.934 1.54667 127.635 1.376 127.272 1.312L126.696 1.216C126.419 1.152 126.28 1.024 126.28 0.831999C126.28 0.597333 126.44 0.48 126.76 0.48H131.336C131.656 0.48 131.816 0.597333 131.816 0.831999C131.816 1.06667 131.678 1.19467 131.4 1.216L130.984 1.28C130.43 1.36533 130.046 1.54667 129.832 1.824C129.619 2.08 129.512 2.54933 129.512 3.232V22.784C129.512 23.168 129.438 23.4347 129.288 23.584C129.16 23.7333 128.99 23.808 128.776 23.808Z" fill="#EB973F"/>
<path d="M133.417 23.52C133.097 23.52 132.938 23.4027 132.938 23.168C132.938 22.976 133.076 22.848 133.354 22.784L134.089 22.656C134.537 22.5707 134.826 22.4533 134.954 22.304C135.103 22.1547 135.178 21.856 135.178 21.408V2.592C135.178 2.144 135.103 1.84533 134.954 1.696C134.826 1.54667 134.537 1.42933 134.089 1.344L133.354 1.216C133.076 1.152 132.938 1.024 132.938 0.831999C132.938 0.597333 133.097 0.48 133.417 0.48H144.169C144.66 0.48 144.927 0.725333 144.969 1.216L145.225 6.528C145.268 6.89067 145.129 7.072 144.809 7.072C144.553 7.072 144.404 6.93333 144.361 6.656L144.169 5.472C143.935 4.02133 143.455 2.96533 142.73 2.304C142.004 1.62133 141.001 1.28 139.721 1.28C138.868 1.28 138.271 1.408 137.93 1.664C137.61 1.89867 137.449 2.32533 137.449 2.944V10.656C137.449 10.9547 137.599 11.104 137.898 11.104H139.497C140.436 11.104 141.012 10.6027 141.225 9.6L141.546 8C141.631 7.68 141.812 7.54133 142.089 7.584C142.324 7.62667 142.441 7.808 142.441 8.128V15.328C142.441 15.648 142.324 15.8293 142.089 15.872C141.812 15.9147 141.631 15.776 141.546 15.456L141.225 13.888C141.076 13.1413 140.863 12.6507 140.585 12.416C140.329 12.1813 139.956 12.064 139.465 12.064H137.898C137.599 12.064 137.449 12.2133 137.449 12.512V20.544C137.449 21.312 137.641 21.8667 138.025 22.208C138.431 22.5493 139.156 22.72 140.202 22.72C141.268 22.72 142.175 22.4533 142.921 21.92C143.689 21.3653 144.223 20.3413 144.521 18.848L144.906 16.96C144.97 16.6827 145.129 16.544 145.385 16.544C145.684 16.544 145.812 16.7253 145.77 17.088L145.449 22.784C145.407 23.2747 145.14 23.52 144.65 23.52H133.417Z" fill="#EB973F"/>
<path d="M153.355 23.52C153.035 23.52 152.875 23.4027 152.875 23.168C152.875 22.976 153.014 22.848 153.291 22.784L154.027 22.656C154.475 22.5707 154.763 22.4533 154.891 22.304C155.04 22.1547 155.115 21.856 155.115 21.408V2.592C155.115 2.144 155.04 1.84533 154.891 1.696C154.763 1.54667 154.475 1.42933 154.027 1.344L153.291 1.216C153.014 1.152 152.875 1.024 152.875 0.831999C152.875 0.597333 153.035 0.48 153.355 0.48H164.107C164.598 0.48 164.864 0.725333 164.907 1.216L165.163 6.528C165.206 6.89067 165.067 7.072 164.747 7.072C164.491 7.072 164.342 6.93333 164.299 6.656L164.107 5.472C163.872 4.02133 163.392 2.96533 162.667 2.304C161.942 1.62133 160.939 1.28 159.659 1.28C158.806 1.28 158.208 1.408 157.867 1.664C157.547 1.89867 157.387 2.32533 157.387 2.944V10.656C157.387 10.9547 157.536 11.104 157.835 11.104H159.435C160.374 11.104 160.95 10.6027 161.163 9.6L161.483 8C161.568 7.68 161.75 7.54133 162.027 7.584C162.262 7.62667 162.379 7.808 162.379 8.128V15.328C162.379 15.648 162.262 15.8293 162.027 15.872C161.75 15.9147 161.568 15.776 161.483 15.456L161.163 13.888C161.014 13.1413 160.8 12.6507 160.523 12.416C160.267 12.1813 159.894 12.064 159.403 12.064H157.835C157.536 12.064 157.387 12.2133 157.387 12.512V20.544C157.387 21.312 157.579 21.8667 157.963 22.208C158.368 22.5493 159.094 22.72 160.139 22.72C161.206 22.72 162.112 22.4533 162.859 21.92C163.627 21.3653 164.16 20.3413 164.459 18.848L164.843 16.96C164.907 16.6827 165.067 16.544 165.323 16.544C165.622 16.544 165.75 16.7253 165.707 17.088L165.387 22.784C165.344 23.2747 165.078 23.52 164.587 23.52H153.355Z" fill="#EB973F"/>
<path d="M172.655 23.808C172.228 23.808 171.748 23.7653 171.215 23.68C170.703 23.5947 170.212 23.488 169.743 23.36C169.295 23.232 168.943 23.0933 168.687 22.944C168.538 22.8587 168.42 22.7733 168.335 22.688C168.271 22.5813 168.239 22.4107 168.239 22.176L168.079 17.152C168.079 16.7253 168.218 16.512 168.495 16.512C168.73 16.512 168.89 16.704 168.975 17.088L169.263 18.304C169.988 21.3547 171.343 22.88 173.327 22.88C174.394 22.88 175.236 22.528 175.855 21.824C176.495 21.0987 176.815 20.0853 176.815 18.784C176.815 17.5253 176.484 16.352 175.823 15.264C175.183 14.176 174.148 13.0987 172.719 12.032C171.14 10.9013 169.988 9.81333 169.263 8.768C168.538 7.70133 168.175 6.57067 168.175 5.376C168.175 3.79733 168.719 2.53867 169.807 1.6C170.916 0.639999 172.324 0.16 174.031 0.16C174.671 0.16 175.29 0.234666 175.887 0.383999C176.484 0.533333 176.975 0.746667 177.359 1.024C177.487 1.10933 177.583 1.20533 177.647 1.312C177.732 1.41867 177.775 1.55733 177.775 1.728L177.871 6.56C177.871 6.92267 177.732 7.104 177.455 7.104C177.263 7.104 177.124 6.95467 177.039 6.656L176.815 5.856C176.346 4.21333 175.855 3.01867 175.343 2.272C174.852 1.504 174.138 1.12 173.199 1.12C172.282 1.12 171.546 1.41867 170.991 2.016C170.458 2.61333 170.191 3.456 170.191 4.544C170.191 5.46133 170.49 6.336 171.087 7.168C171.684 8 172.73 9.01333 174.223 10.208C175.823 11.5093 176.986 12.768 177.711 13.984C178.458 15.1787 178.831 16.4587 178.831 17.824C178.831 19.0187 178.564 20.064 178.031 20.96C177.498 21.856 176.762 22.56 175.823 23.072C174.906 23.5627 173.85 23.808 172.655 23.808Z" fill="#EB973F"/>
<path d="M188.95 23.808C187.372 23.808 185.985 23.3173 184.79 22.336C183.617 21.3547 182.7 19.9787 182.038 18.208C181.398 16.416 181.078 14.304 181.078 11.872C181.078 9.52533 181.43 7.47733 182.134 5.728C182.86 3.95733 183.82 2.592 185.014 1.632C186.23 0.650667 187.574 0.16 189.046 0.16C189.921 0.16 190.689 0.245333 191.35 0.415998C192.012 0.565332 192.598 0.768 193.11 1.024C193.366 1.17333 193.494 1.39733 193.494 1.696L193.59 6.56C193.59 6.92267 193.462 7.104 193.206 7.104C192.972 7.104 192.822 6.96533 192.758 6.688L192.438 5.504C191.99 3.84 191.468 2.688 190.87 2.048C190.294 1.408 189.601 1.088 188.79 1.088C187.297 1.088 186.049 2.016 185.046 3.872C184.065 5.70667 183.574 8.37333 183.574 11.872C183.574 14.2613 183.82 16.2773 184.31 17.92C184.822 19.5627 185.473 20.8 186.262 21.632C187.073 22.464 187.926 22.88 188.822 22.88C189.782 22.88 190.55 22.5813 191.126 21.984C191.724 21.3867 192.225 20.2347 192.63 18.528L193.014 16.96C193.078 16.64 193.249 16.5013 193.526 16.544C193.761 16.5867 193.878 16.768 193.878 17.088L193.75 22.272C193.75 22.5707 193.612 22.7947 193.334 22.944C192.822 23.2 192.214 23.4027 191.51 23.552C190.828 23.7227 189.974 23.808 188.95 23.808Z" fill="#EB973F"/>
<path d="M194.702 23.52C194.382 23.52 194.222 23.4133 194.222 23.2C194.222 22.9867 194.372 22.848 194.67 22.784L195.15 22.688C195.577 22.6027 195.897 22.4 196.11 22.08C196.324 21.7387 196.505 21.2693 196.654 20.672L201.614 0.671999C201.657 0.458666 201.721 0.319999 201.806 0.255999C201.913 0.191999 202.009 0.16 202.094 0.16C202.201 0.16 202.297 0.191999 202.382 0.255999C202.489 0.319999 202.564 0.458666 202.606 0.671999L207.662 20.96C207.812 21.5573 207.982 21.9733 208.174 22.208C208.366 22.4427 208.665 22.6027 209.07 22.688L209.55 22.784C209.849 22.848 209.998 22.9867 209.998 23.2C209.998 23.4133 209.838 23.52 209.518 23.52H204.046C203.748 23.52 203.598 23.4027 203.598 23.168C203.598 22.9333 203.78 22.8053 204.142 22.784L204.75 22.72C205.113 22.6773 205.337 22.56 205.422 22.368C205.529 22.176 205.529 21.8453 205.422 21.376L204.206 16.416C204.078 15.8613 203.726 15.584 203.15 15.584H199.79C199.236 15.584 198.884 15.8613 198.734 16.416L197.646 20.704C197.326 21.92 197.646 22.592 198.606 22.72L199.086 22.784C199.449 22.848 199.63 22.976 199.63 23.168C199.63 23.4027 199.481 23.52 199.182 23.52H194.702ZM199.694 14.624H203.214C203.556 14.624 203.694 14.4427 203.63 14.08L201.582 5.504H201.422L199.278 14.08C199.214 14.4427 199.353 14.624 199.694 14.624Z" fill="#EB973F"/>
<path d="M210.199 23.52C209.879 23.52 209.719 23.4027 209.719 23.168C209.719 22.976 209.857 22.848 210.135 22.784L210.871 22.656C211.319 22.5707 211.607 22.4533 211.735 22.304C211.884 22.1547 211.959 21.856 211.959 21.408V2.592C211.959 2.144 211.884 1.84533 211.735 1.696C211.607 1.54667 211.319 1.42933 210.871 1.344L210.135 1.216C209.857 1.152 209.719 1.024 209.719 0.831999C209.719 0.597333 209.879 0.48 210.199 0.48H216.887C218.145 0.48 219.255 0.757333 220.215 1.312C221.175 1.84533 221.921 2.592 222.455 3.552C222.988 4.512 223.255 5.62133 223.255 6.88C223.255 8.096 222.988 9.17333 222.455 10.112C221.921 11.0507 221.185 11.7867 220.247 12.32C219.308 12.832 218.22 13.088 216.983 13.088H214.679C214.38 13.088 214.231 13.2373 214.231 13.536V21.28C214.231 21.728 214.316 22.0373 214.487 22.208C214.657 22.3573 215.041 22.4853 215.639 22.592L216.823 22.784C217.057 22.8267 217.175 22.944 217.175 23.136C217.175 23.392 217.015 23.52 216.695 23.52H210.199ZM214.231 10.528C214.231 11.7013 214.945 12.288 216.375 12.288C217.761 12.288 218.849 11.7973 219.639 10.816C220.449 9.83467 220.855 8.49067 220.855 6.784C220.855 5.03467 220.449 3.68 219.639 2.72C218.828 1.76 217.676 1.28 216.183 1.28C214.881 1.28 214.231 1.70667 214.231 2.56V10.528Z" fill="#EB973F"/>
<path d="M225.105 23.52C224.785 23.52 224.625 23.4027 224.625 23.168C224.625 22.976 224.764 22.848 225.041 22.784L225.777 22.656C226.225 22.5707 226.513 22.4533 226.641 22.304C226.79 22.1547 226.865 21.856 226.865 21.408V2.592C226.865 2.144 226.79 1.84533 226.641 1.696C226.513 1.54667 226.225 1.42933 225.777 1.344L225.041 1.216C224.764 1.152 224.625 1.024 224.625 0.831999C224.625 0.597333 224.785 0.48 225.105 0.48H235.857C236.348 0.48 236.614 0.725333 236.657 1.216L236.913 6.528C236.956 6.89067 236.817 7.072 236.497 7.072C236.241 7.072 236.092 6.93333 236.049 6.656L235.857 5.472C235.622 4.02133 235.142 2.96533 234.417 2.304C233.692 1.62133 232.689 1.28 231.409 1.28C230.556 1.28 229.958 1.408 229.617 1.664C229.297 1.89867 229.137 2.32533 229.137 2.944V10.656C229.137 10.9547 229.286 11.104 229.585 11.104H231.185C232.124 11.104 232.7 10.6027 232.913 9.6L233.233 8C233.318 7.68 233.5 7.54133 233.777 7.584C234.012 7.62667 234.129 7.808 234.129 8.128V15.328C234.129 15.648 234.012 15.8293 233.777 15.872C233.5 15.9147 233.318 15.776 233.233 15.456L232.913 13.888C232.764 13.1413 232.55 12.6507 232.273 12.416C232.017 12.1813 231.644 12.064 231.153 12.064H229.585C229.286 12.064 229.137 12.2133 229.137 12.512V20.544C229.137 21.312 229.329 21.8667 229.713 22.208C230.118 22.5493 230.844 22.72 231.889 22.72C232.956 22.72 233.862 22.4533 234.609 21.92C235.377 21.3653 235.91 20.3413 236.209 18.848L236.593 16.96C236.657 16.6827 236.817 16.544 237.073 16.544C237.372 16.544 237.5 16.7253 237.457 17.088L237.137 22.784C237.094 23.2747 236.828 23.52 236.337 23.52H225.105Z" fill="#EB973F"/>
<path d="M244.405 23.808C243.978 23.808 243.498 23.7653 242.965 23.68C242.453 23.5947 241.962 23.488 241.493 23.36C241.045 23.232 240.693 23.0933 240.437 22.944C240.288 22.8587 240.17 22.7733 240.085 22.688C240.021 22.5813 239.989 22.4107 239.989 22.176L239.829 17.152C239.829 16.7253 239.968 16.512 240.245 16.512C240.48 16.512 240.64 16.704 240.725 17.088L241.013 18.304C241.738 21.3547 243.093 22.88 245.077 22.88C246.144 22.88 246.986 22.528 247.605 21.824C248.245 21.0987 248.565 20.0853 248.565 18.784C248.565 17.5253 248.234 16.352 247.573 15.264C246.933 14.176 245.898 13.0987 244.469 12.032C242.89 10.9013 241.738 9.81333 241.013 8.768C240.288 7.70133 239.925 6.57067 239.925 5.376C239.925 3.79733 240.469 2.53867 241.557 1.6C242.666 0.639999 244.074 0.16 245.781 0.16C246.421 0.16 247.04 0.234666 247.637 0.383999C248.234 0.533333 248.725 0.746667 249.109 1.024C249.237 1.10933 249.333 1.20533 249.397 1.312C249.482 1.41867 249.525 1.55733 249.525 1.728L249.621 6.56C249.621 6.92267 249.482 7.104 249.205 7.104C249.013 7.104 248.874 6.95467 248.789 6.656L248.565 5.856C248.096 4.21333 247.605 3.01867 247.093 2.272C246.602 1.504 245.888 1.12 244.949 1.12C244.032 1.12 243.296 1.41867 242.741 2.016C242.208 2.61333 241.941 3.456 241.941 4.544C241.941 5.46133 242.24 6.336 242.837 7.168C243.434 8 244.48 9.01333 245.973 10.208C247.573 11.5093 248.736 12.768 249.461 13.984C250.208 15.1787 250.581 16.4587 250.581 17.824C250.581 19.0187 250.314 20.064 249.781 20.96C249.248 21.856 248.512 22.56 247.573 23.072C246.656 23.5627 245.6 23.808 244.405 23.808Z" fill="#EB973F"/>
</svg>
