<svg width="935" height="552" viewBox="0 0 935 552" fill="none" xmlns="http://www.w3.org/2000/svg">
<path d="M239.77 8.72691e-06H591.37V46.5667H586.671C586.671 46.5667 568.378 18.3227 536.779 18.56L429.87 18.0853L429.851 317.08H362.898V311.799C362.898 311.799 384.831 308.999 385.764 301.997L387.162 17.5733L297.784 17.8213C297.784 17.8213 262.615 16.468 244.128 48.0307L239.77 47.58V8.72691e-06Z" fill="#722F37"/>
<path d="M501.64 38.788V324.665H607.408C607.408 324.665 680.54 330.105 692.628 277.523L697.368 277.713V342.533H435.162V336.679C435.162 336.679 459.836 336.679 459.417 322.879C459 309.077 459.694 38.788 459.694 38.788H501.64Z" fill="#722F37"/>
<path d="M51.8187 475.446H17.2733V474.721C21.0173 473.754 23.312 472.547 24.2787 470.977C25.124 469.89 25.6067 466.145 25.6067 459.743V404.422C25.6067 401.643 25.004 400.799 22.2253 400.799H18.7227C14.2533 400.799 11.1133 401.161 9.54266 401.886C6.764 403.093 3.98533 406.959 1.32933 413.602H0.603999C0.241332 407.925 0 402.731 0 397.899C0 395.483 0.362667 394.879 2.65733 394.879H66.192C68.608 394.879 68.9707 395.362 68.9707 397.658C68.9707 401.886 68.7293 407.199 68.3667 413.602H67.6413C64.864 405.751 62.8107 402.974 59.5493 401.886C57.7373 401.161 54.596 400.799 50.1267 400.799H46.7453C43.9667 400.799 43.2427 401.643 43.2427 404.422V459.743C43.2427 465.662 43.8467 469.527 44.9333 471.097C46.02 472.667 48.316 473.875 51.8187 474.721V475.446Z" fill="#722F37"/>
<path d="M107.627 475.446H73.2026V474.721C76.8253 473.754 79.1213 472.547 80.0866 470.977C80.932 469.647 81.416 465.905 81.416 459.743V410.221C81.416 404.302 80.932 400.678 80.0866 399.229C79.2413 397.779 76.9466 396.571 73.2026 395.605V394.879H107.627V395.605C103.883 396.571 101.588 397.658 100.741 398.866C99.6546 400.195 99.172 403.939 99.172 410.099V459.863C99.172 465.783 99.6546 469.527 100.741 471.097C101.708 472.547 104.003 473.754 107.627 474.721V475.446Z" fill="#722F37"/>
<path d="M141.571 475.446H118.137V474.721C121.641 473.635 123.815 472.306 124.903 470.735C125.868 469.165 126.472 465.541 126.713 459.623L128.404 410.099C128.525 407.081 128.647 405.146 128.647 404.302C128.647 402.249 128.284 400.678 127.56 399.59C126.472 397.899 124.177 396.571 120.553 395.605V394.879H144.469C147.852 394.879 148.819 395.243 149.664 397.658C159.448 425.078 165.367 442.471 167.541 449.718C170.077 441.262 176.116 424.111 185.659 398.141C186.504 395.726 187.108 394.879 189.887 394.879H214.768V395.605C211.265 396.45 208.971 397.417 207.884 398.503C206.796 399.59 206.193 401.886 206.193 405.267C206.193 412.153 206.676 432.445 207.521 466.387C207.643 469.527 208.729 471.701 210.783 473.03C211.991 473.635 213.561 474.238 215.493 474.721V475.446H181.311V474.721C184.329 473.997 186.504 473.15 187.592 472.185C188.92 471.097 189.645 468.441 189.645 464.334C189.645 451.893 189.404 432.566 189.041 406.234C187.833 410.099 180.223 432.083 166.091 472.065H157.757L134.928 405.993L134.444 425.802C134.323 434.378 134.081 442.109 133.84 448.873C133.72 455.637 133.599 459.502 133.599 460.469C133.599 466.145 134.081 469.647 134.928 470.857C136.135 472.667 138.309 473.875 141.571 474.721V475.446Z" fill="#722F37"/>
<path d="M252.582 435.828V465.662C252.582 467.958 253.306 469.286 254.876 469.526C256.447 469.89 258.742 470.012 261.883 470.012C271.424 470.012 275.411 464.213 275.411 452.133C275.411 443.558 272.874 439.33 266.231 437.036C263.936 436.189 260.554 435.828 256.084 435.828H252.582ZM252.582 430.392H255.964C260.192 430.392 263.332 429.909 265.143 429.064C269.855 427.01 272.271 422.3 272.271 414.93C272.271 408.65 270.579 404.422 267.196 402.369C265.143 401.161 262.487 400.557 259.104 400.557H255.964C253.548 400.557 252.582 401.644 252.582 405.146V430.392ZM226.612 475.446V474.721C229.995 473.634 232.168 472.426 233.255 471.34C234.343 470.012 234.826 466.87 234.826 461.677V408.046C234.826 403.093 234.222 399.953 232.894 398.625C231.564 397.297 229.511 396.33 226.612 395.605V394.88H261.883C270.338 394.88 276.378 395.726 280 397.297C287.248 400.437 290.872 405.872 290.872 413.724C290.872 423.386 285.315 429.546 274.203 432.325C287.852 433.412 295.22 441.626 295.22 452.617C295.22 462.642 290.51 469.408 281.087 472.91C276.256 474.601 270.218 475.446 262.97 475.446H226.612Z" fill="#722F37"/>
<path d="M331.218 434.498H335.205C340.157 434.498 343.901 433.532 346.438 431.721C350.061 428.942 351.873 424.232 351.873 417.709C351.873 409.374 349.698 404.302 345.23 402.249C342.573 401.161 339.673 400.557 336.654 400.557H334.721C331.822 400.557 331.218 401.524 331.218 404.906V434.498ZM340.036 475.446H305.249V474.721C308.632 473.876 310.926 472.548 312.134 470.977C312.98 469.526 313.462 465.784 313.462 459.744V410.221C313.462 404.181 312.98 400.437 312.134 399.108C311.288 397.78 308.993 396.693 305.249 395.605V394.88H335.084C342.693 394.88 348.733 395.244 353.202 395.968C365.16 398.021 371.321 404.422 371.321 416.501C371.321 427.01 364.314 433.896 354.773 436.914C356.705 438.002 358.517 439.693 361.053 443.558C362.382 445.369 363.469 447.182 364.436 448.752L368.905 456.121L374.098 464.454C377.964 470.736 380.862 473.393 384.849 474.36V474.964C379.172 475.568 374.581 475.929 371.078 475.929C365.401 475.929 361.536 475.204 359.482 473.636C356.946 471.701 354.289 467.837 351.51 462.038L342.452 443.92C341.124 441.626 338.949 440.417 335.688 440.417H331.218V460.228C331.218 466.145 331.701 469.769 332.789 471.097C333.996 472.426 336.413 473.636 340.036 474.721V475.446Z" fill="#722F37"/>
<path d="M391.981 475.446V474.842C395.001 473.875 397.175 472.789 398.505 471.582C399.591 470.494 400.194 467.354 400.194 462.401V410.099C400.194 404.061 399.711 400.315 398.866 398.986C397.779 397.537 395.483 396.33 391.981 395.483V394.879H423.749V395.483C420.005 396.45 417.709 397.537 416.621 398.866C415.414 400.195 414.81 403.818 414.81 409.978V464.213C414.81 468.561 415.777 470.131 420.609 470.131H433.17C438.363 470.131 441.866 469.286 443.678 467.715C445.49 466.266 447.543 462.883 449.839 457.449H450.565L449.839 471.582C449.477 474.963 448.873 475.446 446.094 475.446H391.981Z" fill="#722F37"/>
<path d="M449.479 394.88H480.645V395.484C476.899 396.572 474.603 397.78 473.638 399.229C472.793 400.557 472.31 403.457 472.31 407.684V445.369C472.31 452.617 472.914 457.932 474.242 461.313C476.778 467.958 482.698 471.34 492.239 471.34C499.729 471.34 505.163 469.044 508.425 464.574C511.202 460.83 512.533 454.429 512.533 445.612V409.253C512.533 403.94 511.686 400.316 509.995 398.504C508.909 397.296 506.855 396.33 503.955 395.484V394.88H527.146V395.484C525.093 396.088 523.282 397.054 521.59 398.384C519.779 399.953 518.813 403.576 518.813 409.253V443.68C518.813 454.429 517.122 462.16 513.861 466.629C509.03 473.514 500.574 477.017 488.374 477.017C474.363 477.017 465.302 473.15 461.195 465.3C458.901 461.073 457.693 453.825 457.693 443.798V408.288C457.693 403.336 457.089 400.194 456.003 398.745C455.157 397.658 452.982 396.572 449.479 395.484V394.88Z" fill="#722F37"/>
<path d="M554.934 475.446H530.777V474.842C532.83 474.238 534.28 473.635 535.245 472.91C537.298 471.701 539.352 469.647 541.526 466.629L563.752 436.069L543.218 404.422C541.165 401.161 539.352 398.866 537.904 397.779C536.816 396.933 535.245 396.087 533.192 395.483V394.879H565.322V395.483C563.148 396.087 561.457 396.693 560.248 397.417C559.404 397.899 558.92 398.625 558.92 399.47C558.92 400.678 559.645 402.49 561.216 404.906L575.226 426.165L588.15 407.081C590.568 403.577 591.774 401.161 591.774 399.711C591.774 398.746 591.292 398.021 590.204 397.417C589.358 397.054 587.789 396.33 585.252 395.483V394.879H607.84V395.483C606.028 396.209 604.698 396.933 603.733 397.537C602.405 398.383 600.352 400.437 597.814 403.939L578.246 430.513L601.921 466.629C603.974 469.647 605.786 471.822 607.598 472.91C608.444 473.514 610.014 474.118 612.308 474.842V475.446H578.488V474.842C580.784 473.997 582.353 473.393 583.32 472.91C584.406 472.306 584.89 471.582 584.89 470.494C584.89 469.165 584.286 467.474 582.957 465.419L567.254 440.901C564.718 444.403 559.162 452.254 550.585 464.695C548.894 467.233 548.049 469.165 548.049 470.251C548.049 471.461 548.653 472.306 549.861 472.91C551.31 473.635 553.002 474.238 554.934 474.842V475.446Z" fill="#722F37"/>
<path d="M618.354 455.757C619.562 459.985 621.735 463.488 624.997 466.508C628.983 470.131 634.177 471.944 640.579 471.944C651.571 471.944 656.765 466.145 656.765 459.381C656.765 455.879 655.678 452.859 653.503 450.563C651.329 448.269 646.739 445.249 639.734 441.745L633.694 438.727C622.943 433.291 617.629 425.801 617.629 416.26C617.629 409.737 620.046 404.301 624.997 399.952C629.949 395.484 637.438 393.309 647.465 393.309C653.866 393.309 658.818 393.913 662.322 395.121C665.703 396.209 666.549 397.175 666.549 399.712C666.549 401.765 665.825 405.872 664.375 411.911H663.65C662.322 407.683 660.63 404.423 658.455 402.248C655.437 399.591 651.209 398.263 645.894 398.263C634.419 398.263 629.346 403.819 629.346 410.945C629.346 413.964 630.313 416.621 632.245 418.917C634.177 421.212 638.405 423.869 644.807 427.131L650.603 430.029C664.133 436.915 668.843 443.316 668.843 452.859C668.843 467.353 658.455 477.016 639.25 477.016C631.399 477.016 624.997 475.688 620.286 473.151C617.75 471.581 616.422 469.891 616.422 467.957C616.422 464.817 616.783 460.711 617.629 455.757H618.354Z" fill="#722F37"/>
<path d="M720.304 475.446H688.898V474.842C692.402 473.875 694.818 472.667 695.904 471.097C696.75 469.647 697.232 465.905 697.232 459.863V403.697C697.232 400.919 696.628 400.074 693.851 400.074H689.019C684.791 400.074 681.772 400.315 680.202 400.919C677.182 402.006 674.404 405.871 671.988 412.515H671.264C670.9 406.838 670.66 402.006 670.66 397.779C670.66 395.483 671.022 394.879 673.318 394.879H735.644C737.939 394.879 738.302 395.362 738.302 397.658C738.302 401.886 738.059 406.838 737.698 412.515H737.094C734.556 404.663 732.383 401.886 728.88 400.919C726.827 400.315 723.807 400.074 719.82 400.074H715.23C712.452 400.074 711.727 400.919 711.727 403.697V459.863C711.727 465.662 712.332 469.407 713.419 471.097C714.386 472.547 716.68 473.754 720.304 474.842V475.446Z" fill="#722F37"/>
<path d="M755.58 442.35H778.772C776.598 435.707 774.664 429.909 772.852 424.835C769.471 414.569 768.142 410.823 767.296 408.287L765.484 413.482C764.882 415.535 763.552 419.279 761.619 424.714L755.58 442.35ZM754.372 475.446H731.784V474.72C733.596 474.359 735.046 473.635 736.132 472.667C738.066 470.978 739.756 468.078 741.327 463.85L760.05 413.482C763.068 405.63 765.243 399.47 766.814 394.879H777.08C780.342 404.18 782.395 410.1 783.362 412.636L801.842 463.367C803.412 467.715 805.104 470.735 806.674 472.306C807.64 473.392 809.331 474.118 811.747 474.72V475.446H780.462V474.72C782.998 474.359 784.811 473.635 785.898 472.788C788.192 471.218 788.192 469.044 785.776 462.643L780.462 447.664H753.768L748.574 463.004C747.608 465.783 747.124 468.078 747.124 469.89C747.124 471.218 747.728 472.184 749.056 472.91C750.023 473.514 751.835 474.118 754.372 474.72V475.446Z" fill="#722F37"/>
<path d="M858.254 475.446H827.091V474.842C830.715 473.754 833.008 472.547 833.975 470.977C834.822 469.647 835.304 466.145 835.304 460.227V440.175L813.803 404.663C811.63 401.161 809.818 398.746 808.247 397.417C807.402 396.571 806.072 395.967 804.503 395.483V394.879H836.028V395.483C833.492 396.209 831.8 396.813 830.955 397.297C829.868 397.899 829.264 398.625 829.264 399.47C829.264 400.799 829.99 402.61 831.559 405.146L847.624 432.807L850.282 428.218C852.576 424.353 857.528 415.898 862.843 406.355C864.414 403.818 865.139 401.643 865.139 400.074C865.139 398.986 864.535 398.141 863.327 397.297C862.482 396.693 861.032 396.087 859.099 395.483V394.879H880.72V395.483C878.667 396.087 876.976 397.054 875.768 398.383C874.44 399.711 872.87 401.886 871.058 404.785L849.919 438.726V460.347C849.919 466.266 850.523 469.89 851.611 471.218C852.698 472.547 854.872 473.754 858.254 474.842V475.446Z" fill="#722F37"/>
<path d="M883.746 455.757C884.954 459.985 887.127 463.488 890.388 466.508C894.375 470.131 899.568 471.944 905.971 471.944C916.963 471.944 922.156 466.145 922.156 459.381C922.156 455.879 921.07 452.859 918.895 450.563C916.72 448.269 912.131 445.249 905.126 441.745L899.086 438.727C888.335 433.291 883.02 425.801 883.02 416.26C883.02 409.737 885.438 404.301 890.388 399.952C895.342 395.484 902.83 393.309 912.856 393.309C919.258 393.309 924.21 393.913 927.714 395.121C931.095 396.209 931.94 397.175 931.94 399.712C931.94 401.765 931.216 405.872 929.767 411.911H929.042C927.714 407.683 926.022 404.423 923.847 402.248C920.828 399.591 916.6 398.263 911.286 398.263C899.811 398.263 894.738 403.819 894.738 410.945C894.738 413.964 895.704 416.621 897.636 418.917C899.568 421.212 903.796 423.869 910.199 427.131L915.995 430.029C929.524 436.915 934.235 443.316 934.235 452.859C934.235 467.353 923.847 477.016 904.642 477.016C896.791 477.016 890.388 475.688 885.678 473.151C883.142 471.581 881.814 469.891 881.814 467.957C881.814 464.817 882.175 460.711 883.02 455.757H883.746Z" fill="#722F37"/>
<path d="M227.804 547.024V551.155H205.614V513.575H210.432V547.024H227.804Z" fill="#722F37"/>
<path d="M262.871 513.575H266.781V538.122C266.781 543.046 265.574 546.576 263.161 548.715C260.746 550.855 257.586 551.926 253.677 551.926C249.326 551.926 246.105 550.824 244.013 548.619C241.921 546.415 240.874 542.916 240.874 538.122V513.575H245.582V538.124C245.582 541.046 245.922 543.103 246.601 544.296C247.279 545.491 248.307 546.372 249.683 546.942C251.061 547.511 252.501 547.795 254.006 547.795C256.906 547.795 259.109 547.034 260.614 545.508C262.119 543.984 262.871 541.523 262.871 538.124V513.575Z" fill="#722F37"/>
<path d="M307.657 513.575L297.119 530.776L309.171 551.155H303.846L294.365 535.139L284.495 551.155H280.126L292.159 531.71L281.447 513.575H286.71L294.947 527.466L303.382 513.575H307.657Z" fill="#722F37"/>
<path d="M344.513 513.575H348.422V538.122C348.422 543.046 347.215 546.576 344.802 548.715C342.387 550.855 339.227 551.926 335.318 551.926C330.967 551.926 327.746 550.824 325.654 548.619C323.562 546.415 322.515 542.916 322.515 538.122V513.575H327.223V538.124C327.223 541.046 327.563 543.103 328.242 544.296C328.921 545.491 329.949 546.372 331.325 546.942C332.702 547.511 334.142 547.795 335.647 547.795C338.547 547.795 340.75 547.034 342.255 545.508C343.761 543.984 344.513 541.523 344.513 538.124V513.575Z" fill="#722F37"/>
<path d="M370.743 531.057H380.572C383.16 531.057 385.091 530.373 386.367 529.006C387.641 527.639 388.28 525.963 388.28 523.981C388.28 521.999 387.605 520.457 386.256 519.357C384.908 518.254 383.205 517.703 381.149 517.703H370.743V531.057ZM393.373 551.154H388.439L381.509 534.883H370.743V551.154H366.337V513.575H381.149C385.169 513.575 388.147 514.671 390.083 516.863C392.02 519.058 392.988 521.458 392.988 524.063C392.988 526.065 392.447 527.982 391.363 529.817C390.28 531.653 388.491 532.966 385.995 533.754L393.373 551.154Z" fill="#722F37"/>
<path d="M433.67 513.575L421.089 535.351V551.155H416.381V535.351L403.8 513.575H409.365L419.338 530.84L429.378 513.575H433.67Z" fill="#722F37"/>
<path d="M474.484 531.057H484.313C486.901 531.057 488.833 530.373 490.108 529.006C491.384 527.639 492.021 525.963 492.021 523.981C492.021 521.999 491.347 520.457 489.999 519.357C488.649 518.254 486.947 517.703 484.892 517.703H474.484V531.057ZM497.115 551.154H492.18L485.251 534.883H474.484V551.154H470.079V513.575H484.892C488.911 513.575 491.888 514.671 493.825 516.863C495.761 519.058 496.729 521.458 496.729 524.063C496.729 526.065 496.188 527.982 495.105 529.817C494.021 531.653 492.233 532.966 489.736 533.754L497.115 551.154Z" fill="#722F37"/>
<path d="M538.019 547.024V551.155H513.709V513.575H537.495V517.704H518.417V529.654H533.558V533.48H518.417V547.024H538.019Z" fill="#722F37"/>
<path d="M581.345 551.155H576.774L557.338 518.393L557.393 520.871C557.447 521.807 557.475 522.596 557.475 523.239V551.155H553.677V513.575H559.567L577.738 544.2L577.683 541.585C577.647 540.559 577.629 539.651 577.629 538.861V513.575H581.345V551.155Z" fill="#722F37"/>
<path d="M611.153 551.155H606.445V517.704H595.681V513.575H621.945V517.704H611.153V551.155Z" fill="#722F37"/>
<path d="M648.587 536.645L642.766 518.585L636.951 536.645H648.587ZM658.175 551.155H653.368L649.59 540.171H635.644L632.282 551.155H628.346L640.558 513.575H645.883L658.175 551.155Z" fill="#722F37"/>
<path d="M694.336 547.024V551.155H672.146V513.575H676.965V547.024H694.336Z" fill="#722F37"/>
<path d="M704.708 541.216L708.948 540.252C710.655 545.373 714.352 547.933 720.043 547.933C723.016 547.933 725.255 547.302 726.76 546.041C728.265 544.78 729.017 543.089 729.017 540.97C729.017 539.369 728.445 538.08 727.297 537.104C726.151 536.128 724.825 535.456 723.323 535.086L715.803 533.234C713.857 532.738 712.265 532.134 711.027 531.428C709.788 530.72 708.736 529.632 707.875 528.161C707.012 526.689 706.58 525.009 706.58 523.116C706.58 519.972 707.764 517.468 710.131 515.602C712.5 513.737 715.536 512.802 719.244 512.802C726.072 512.802 730.56 515.897 732.707 522.081L728.44 523.349C727.944 521.145 726.779 519.48 724.944 518.352C723.108 517.222 721.153 516.658 719.079 516.658C717.023 516.658 715.192 517.202 713.587 518.29C711.98 519.378 711.179 520.917 711.179 522.91C711.179 525.693 713.213 527.576 717.284 528.552L724.309 530.198C730.735 531.742 733.947 535.201 733.947 540.58C733.947 543.83 732.739 546.533 730.325 548.689C727.912 550.848 724.512 551.925 720.125 551.925C712.344 551.925 707.204 548.356 704.708 541.216Z" fill="#722F37"/>
</svg>
